<?xml version="1.0" encoding="UTF-8"?>
<svg version="1.1" viewBox="0 0 804 800" width="265" height="200" xmlns="http://www.w3.org/2000/svg">
<path transform="translate(0)" d="m0 0h804v800h-804z" fill="#181207"/>
<path transform="translate(0)" d="m0 0h804v800h-804zm392 2-34 2-37 5-32 8-36 12-33 15-24 13-18 12-14 10-14 11-13 11-15 14-13 13-7 8-8 10-2 1-10 1-2 4 2 9-18 27-10 18-12 23-16 39-12 42-6 29-4 32-2 23v35l3 40 4 29 6 29 1 9v230l3 10 7 8 10 5 9 1h57l17-1 9-4 8-7 3-7 1-5 1-51 17-3-6 9-4 13v13l4 11 8 9 8 4 8 2 9-1 9-3 10-8 13-17 12-7 3-1-6 12-1 4v10l5 10 7 7 8 3 4 1h74l12-4 9-8 3-5v-2l3 3 3 5 7 7 9 3h11l11-4 5-4 4-5 2-5 3 3 6 8 6 5 8 3h146l11-4 10-10 1-4h2l7 10 6 5 10 4h10l13-5 4 2 7 7 6 4 11 4 5 1h17l13-4 17-1 6-1 14 4 6 1h15l13-4 9-6 7-8 5-10 1-4v-16l-3-10-8-15-2-4 1-13 3-10v-6l-2-2h-3l1-147 7-25 5-27 5-39 1-14v-46l-2-26-5-34-6-25-7-25-8-23-12-29-5-10-3-1-1 12-2 9-3 16v3h-2l-2 6v4h2l3 12 4 11 6 20 3 13 5 30 3 21 1 12v55l-1 14-3 21-2 12-2 4-2 10h-10l-2-16-1-6 1-1v-14l-4-26-6-22-12-31-7-14-12-19-8-11-2-2-1-4h2l-1-6-6-14-4-14-3-15 11 2 10-1 12-4 10-7 7-7 6-10 6-18 2-25v-45l-3-12-5-12-8-11-9-9-14-9-16-7-11-3-13-2-3-5-9-9-14-11-12-9-12-8-15-9-18-10-16-8-21-9-16-6-30-9-27-6-30-4-13-1-40-1z" fill="#FCFCFC"/>
<path transform="translate(640,123)" d="m0 0h11l-4 3-12 5-11 7-2 2 1 4 8 11 6 12 7 21 4 31 3 22 5 16 8 14 2 3 5 36 6 21-4-1-10-4 6 8 9 10 15 20 7 11 12 22 6 15 9 30 2 16-4-4-7-8-2-2 11 33 5 20v5l-31 1-17 2-13 7-4-1-6-7-11-7-2-1 4 8 3 13-1 12-5 15-5 8-7 6-1-2v-14l-1-11-3 11-3 18-4 6-4 4-6-1-6-12-1-4-1-29-3 7-2 10v27l-9-1-7-8-2-6-1-25-2-1-1 9-2-1 1-15 5-13 6-9 1-3h-5l2-4 7-11 5-6 11-8 13-5 6-1h18l18 4 13 5 21 12 11 9 6 5 3 1-9-15-12-14-11-9-16-9-12-4-10-2h-23l-16 5-13 7-11 9-7 8-9 16-3 7-2 7-3 1h-15l-5-5-6-9-1-4h-2l-14-21-9-11-12-11-11-7-13-5-5-1h-18l-11 3-1-4 6-23 3-9-6 4-4 2 2-6 10-17-4 2h-4l2-5 3-5 11-27 5-13-2 1h-7l1-8 2-9 1-11v-78l2-18 5-21 5-12 8-11 11-11-3-5-13-8v-1h7l17 7 2 4 11-6 14-5h23l10 4 5 1 7-4 4-1h21l10 4h3l4-5 10-8 8-4z" fill="#E7A974"/>
<path transform="translate(383,30)" d="m0 0h36l17 1 10 2 28 4 23 5 7 2 12 4 7 3 10 3 9 4 10 4 27 13 20 12 14 9 10 8 4 4-10 6-8 6-2 3h-8l-4-1h-21l-10 2-8-1-10-2h-13l-16 3-9 4h-8l-8-3-12-2-15-1h-33l-17 3-15 7-13 9-4 2-2 4-5 6-6 11-4 11v4l4 2v42l3 24 4 13 6 12 6 7 10 7 9 4 4 1h13l12-3 5-3h2v10l-3 20-6 19-1 5 5 2v7l-10 26-5 12-5 15h-4l-12-16-14-15-13-10-14-9-23-12-18-7-1-2 4-6 3-1 27 12 6 3 2-1-5-5-13-8-13-5-1-2 4-10 12 1 15 4 12 4-1-5-17-6-18-4 1-8 2-5h17l18 1-1-3-25-3-7-1 1-8v-11l-5-25-6-18-4-7v-10l2-9v-23l-4-23-6-20-8 1-20 6-17 7-14 8-13 10-8 8h-32l-14 3-6 2-6-1-10-8-15-8-12-5-12-3 2-4 17-17 22-18 3-3h2v-2l5-3 16-11h2v-2l6-3 13-8 19-10 7-3 12-5 9-4 11-4 17-5 6-3 7-1 5-2 9-1 5-2 32-5z" fill="#FCEFD4"/>
<path transform="translate(430)" d="m0 0h374v375l-1 3-1 12h-1l-2-26-5-34-6-25-7-25-8-23-12-29-4-8v-2h-2l-1 11-2 9-4 19h-2v5l-2 5h2l5 15 3 8 6 20 3 13 5 30 3 21 1 12v55l-1 14-3 21-2 12-2 4-2 10-1 1h-10l-1-1-2-16-1-6 1-1v-14l-4-26-6-22-12-31-7-14-12-19-8-11-2-2v-4h2l-9-23-4-15-1-11 16 1 15-4 11-7 7-7 6-10 6-18 2-25v-45l-3-12-5-12-8-11-8-8-14-9-16-7-11-3-13-2-4-6-8-8-14-11-12-9-12-8-15-9-18-10-16-8-21-9-16-6-30-9-27-6-30-4-21-2z" fill="#FCFCFC"/>
<path transform="translate(514,530)" d="m0 0 3 1v8h1l2-7 4-1h36l2 5 2 14 6 16 5 8 7 7 11 6 7 3 12 23 7 14 2 7h3l2-5 9-19 10-21 6-9 7-7 9-15 7-16 2-9 1-1 11-1h64v135l-11 1-5 3-4 5-3 3-2-10-3-4v-2l-5-2-7-3h-11l-8 4-5 4-2 4-1-4 1-28-2 1-9 20-9 17-2 2-9 2-4 2-2 4-1 8 3 7 1 2-13 28-9 19-4 3-7-1-8-14-12-23-8-16-21-43-8-17-1-1v114h-61l-1-7v-67l1-115 8-16 5-15z" fill="#FCFCFC"/>
<path transform="translate(303,148)" d="m0 0h7l4 16 2 10v9l-2 12-4 14v2l7 10 4 10 4 20 1 8v13l-2 14-4 15-4 8-9 12-7 7-10 7-16 8-20 6-13 2-12 1h-10l-26-3-17-5-16-8-11-7-12-12-9-14-5-12-3-15v-26l3-14-1-5-10-15-7-16-4-21-1-16 1-2 19 1 14 3 21 7 15 9 13 9 10-3 7-2 8-1h27l10 1 11-12 11-9 13-8 16-6z" fill="#4F6A70"/>
<path transform="translate(350,531)" d="m0 0h50l10 26 5 11 11 27 7 16 8 20 21 49 16 39 9 21 4 9v3h-46l-14-1-7-11-14-34v-2l-5 3-12 16-13 18-4 5h-3l-11-16-13-16-8-10-2-1-3 9-5 13-6 14-6 13h-62l1-5 10-24 10-25 5-11 11-26 5-11 6-15 12-27 9-22 7-16 8-20 8-18z" fill="#FCFCFB"/>
<path transform="translate(49,531)" d="m0 0h95l11 9 2 1 10 1 1 3h3v2l5 1 3 1h19 2l15-10h2v-2l9-4 4-1h21v3h-11l-13 2-12 5-11 8-9 10-6 10-2 8h-1l-1 6v19l1 6h2l1 5h2l7 14 1 1h3l4 5 4 4-5 10-8 10-9 8-11 7-12 5-15 4-7 1-34 1v75h-61l-1-78v-93l1-56z" fill="#FCFCFB"/>
<path transform="translate(803,375)" d="m0 0h1v425h-804v-412h1l1 11 2 47 3 31 4 26 6 31v232l3 10 7 8 9 4 9 1h57l17-1 9-4 7-6 3-7 1-5 1-51 6-2 5-1h7l-2 5-4 7-3 10v13l4 11 7 8 8 4 8 2 9-1 9-3 10-8 13-17 12-7h3l-2 6-3 6-1 4v10l5 10 8 7 10 3h74l12-4 8-7 4-7 3 1 3 6 7 7 9 3h11l11-4 8-8 3-6 4 4 6 8 5 4 8 3h146l11-4 9-9 2-5 3 1 7 10 5 4 10 4h10l13-5 4 2 7 7 6 4 11 4 5 1h17l13-4 17-1 6-1 14 4 6 1h15l13-4 9-6 7-9 4-8 1-4v-16l-3-10-8-15-2-4 1-13 3-10v-6l-4-2v-147l7-25 5-27 5-39 1-14 1-58z" fill="#FBFBFA"/>
<path transform="translate(372,55)" d="m0 0h4v98l-6 11-4 11v4l4 2v42l3 24 4 13 6 12 6 7 10 7 9 4 4 1h13l12-3 5-3h2v10l-3 20-6 19-1 5 5 2v7l-10 26-5 12-5 15h-4l-12-16-14-15-13-10-14-9-23-12-18-7-1-2 4-6 3-1 27 12 6 3 2-1-5-5-13-8-13-5-1-2 4-10 12 1 15 4 12 4-1-5-17-6-18-4 1-8 2-5h17l18 1-1-3-25-3-7-1 1-8v-11l-5-25-6-18-4-7v-10l2-9v-23l-4-23-6-20-8 1-20 6-17 7-14 8-13 10-8 8h-10l-3-9-11-26-8-16-1-4 22-13 16-9 32-14 24-8 27-7 8-2h5l4 86 2 58 1 16v43l-2 17 6 1-1-62-3-108-2-51 4-2z" fill="#FA877E"/>
<path transform="translate(88,206)" d="m0 0 3 3 5 12 1 5h2l2 5 5 8-1 15v24l3 15-1 4-21 7v2l9-1 10-2h5l6 11-1 3-16 8-14 9-4 4 32-14 9-1 4 6-1 5-11 8-13 12-4 5v3l14-11 18-12 1-1h5l5 5-1 5-11 14-10 16-8 16-7 19-7 25-3 20-1 12v14l1 18-1 1-48 1-4-9-2-9-2-20-2-9-1-16-1-3v-52l3-20 4-33 2-7 2-12 3-10 3-9 4-14 6-16 7-18 7-15 9-16z" fill="#F8867C"/>
<path transform="translate(614,331)" d="m0 0h2l4 9 3 16 1 11v20l-3 20-3 14-4 1-5-13v-2h-2l-4 16-5 15-7 16v6l-9 9-9 15-5 11-2 7-3 1h-15l-5-5-6-9-3-7-3-11-10-24-9-26-3-14v-3l-3 2-3 16-5-4-5-14-4-21v-19l3-25 2-4h2v-2l5 2 10 5 11 1 13 14 8 4 4 1h20l10-4 7-6 7-10 13-3z" fill="#FCFCFB"/>
<path transform="translate(656,265)" d="m0 0 4 4 3 8 1 7v12l-3 1v9l3 8 2 10 1 2-4 1 11 12 13 17 12 17 13 24 6 15 9 30 2 16-4-4-7-8-2-2 11 33 5 20v5l-31 1-17 2-13 7-4-1-6-7-11-7-2-1 4 8 3 13-1 12-5 15-5 8-7 6-1-2v-14l-1-11-3 11-3 18-4 6-4 4-6-1-6-12-1-4-1-29-3 7-2 10v27l-9-1-7-8-2-6-1-25-2-1-1 9-2-1 1-15 5-13 6-9 1-3h-5l2-4 7-11 5-6 11-8 13-5 6-1h18l18 4 13 5 21 12 11 9 6 5 3 1-9-15-12-14-11-9-16-9-12-4-10-2-22-1v-1l6-1h13l16 3h8l5 1 12 4-3-16-5-19-8-23-9-20-5-10 1-3 13 11 1 2 3 1-5-14-16-32 1-2h-2l-8-22-1-5-1-3v-11-3-6l3-4 6-2z" fill="#9F6230"/>
<path transform="translate(288,354)" d="m0 0h4l4 15 2 14v22l-3 19h-3l-3-15-1-2-1 15-5 16-9 16-11 14-12 15-9 14-2 4-3-1-4-10-7-9-8-8-13-10-11-11-9-13-4-8-5-17-1-6-1 21-3-2-5-16-2-16v-12l2-19 1-5 9 2 9 3 20 3 12 1h15l21-2 16-4 16-6z" fill="#FCFCFB"/>
<path transform="translate(221,194)" d="m0 0 2 3 10 38 5 21 6 12 11 14 11 9 11 7 10 4 18 2h12l-1 5-9 12-7 7-10 7-16 8-20 6-13 2-12 1h-10l-26-3-17-5-16-8-11-7-12-12-9-14-5-12-3-15v-26l3-14 4-6 7-8h1l-1 8-4 10-2 12v24l3 12 5 13 5 8v2l8 1 15-4 16-7 11-9 9-9 7-11 4-11 5-25 2-15 1-19 1-7z" fill="#FBFAF9"/>
<path transform="translate(749,175)" d="m0 0h1l1 40 4 2-1 12-2 9-4 19h-2v5l-2 5h2l5 15 3 8 6 20 3 13 5 30 3 21 1 12v55l-1 14-3 21-2 12-2 4-2 10-1 1h-10l-1-1-2-16-1-6 1-1v-14l-4-26-6-22-12-31-7-14-12-19-8-11-2-2v-4h2l-9-23-4-15-1-11 16 1 15-4 11-7 7-7 6-10 6-18 2-25z" fill="#FBEFD3"/>
<path transform="translate(369,584)" d="m0 0h9l8 5 4 8 1 8-3 14-2 4 5-2 12-6h13l6 3 5 4v2h2l4 7 1 4v13l-3 10-8 12-8 10-8 8-7 8-13 12-10 10-5 1-16-15-24-24-10-13-7-14-1-7v-9l2-9 2-4 7-6 6-3h12l10 4 4 3h3l-3-12v-15l4-6z" fill="#FB877F"/>
<path transform="translate(662,127)" d="m0 0h10l15 2 15 6 11 8 10 10 6 10 2 5 1 7v37l-3 24-3 12-8 13-4 5-9 5-8 1-10-3-9-8-9-16-4-15-5-39-5-19-7-16-7-9-7-6-3-3v-3l16-6z" fill="#A96836"/>
<path transform="translate(420,55)" d="m0 0h10l35 5 22 5 28 8 16 6 19 8 11 5-1 4-10 19-1 5h5l3-9 8-15 6 2 27 15 7 6 3 1-1 3h-8l-4-1h-21l-10 2-8-1-10-2h-13l-16 3-9 4h-8l-8-3-12-2-15-1h-33l-16 2v-14l3-51z" fill="#FA877F"/>
<path transform="translate(373,255)" d="m0 0h2l4 9 5 9 5 6 10 7 9 4 4 1h13l12-3 5-3h2v10l-3 20-6 19-1 5 5 2v7l-10 26-5 12-5 15h-4l-12-16-14-15-13-10-14-9-23-12-18-7-1-2 4-6 3-1 27 12 6 3 2-1-5-5-13-8-13-5-1-2 4-10 12 1 15 4 12 4-1-5-17-6-18-4 1-8 2-5h17l18 1-2-4z" fill="#F9867D"/>
<path transform="translate(542,240)" d="m0 0h20l8 4 7 7 4 9 1 11-3 11-7 8-8 5-7 2 4 7 7 9 8 6 8 3h10l8-4 5-6 3-9v-18l-3-8v-7h7l6 7 4 8 2 9v13l-3 12-7 10-5 5-10 5-10 2-8 11-8 6-8 3h-20l-10-4-8-7-7-8-11-1-10-5-7-6-6-11-2-11v-11l2-11 5-9 4-2h5l-1 8-1 6v11l3 12 4 7 6 4 3 1h8l10-5 6-7 6-11 1-4h-8l-10-6-8-9-1-3v-14l3-9 9-10 7-5z" fill="#181309"/>
<path transform="translate(440,138)" d="m0 0h9l12 2 11 6 3 3v2l-7 4-8 9-6 12-4 13-1 5-1 36v12l-2 11-4 10-5 7-6 4-3 1h-13l-10-5-8-9-5-11-3-11-2-15v-40l2-13-4-1 2-5 10-11 14-9 13-5z" fill="#A96836"/>
<path transform="translate(453,446)" d="m0 0h17l10 4 10 6 8 8 13 18 10 18-1 3h-10l-11-18-6-7-2-1v-2h-3v-2l-5-1-4-1 10 12 7 15 2 7v20l-4 12-2-1-7-21v35l-5 8-1 1h-5l-6-7-4-9-4-17-1-10-1-2-3 12v24l2 8v5h-6l-6-4-5-6-4-8-5-25h-3v21l-3-1-5-10-1-5v-22l5-17 5-8-5 3-5 5-4 2 2-9 4-10 7-9 9-8 11-5z" fill="#E7A973"/>
<path transform="translate(308,341)" d="m0 0h3l7 12 10 24 6 17 4 17 3 9 3 12 4 25v29l-3 15-5-5-8-10-11-8-12-5-5-1h-13l-10 2-3 2h-4v2l-11 7-8 9-5 9-2 1-10-1-1-2h2l2-6 9-13 8-10 14-18 9-16 5-16 1-16 3 3 3 15 2-4 2-15v-22l-3-19-2-6v-4l-4-1 10-5z" fill="#4F6A6F"/>
<path transform="translate(88,206)" d="m0 0 3 3 5 12 1 5h2l1 7-5 9-18 45-7 24-6 27-4 22-3 31v37l4 38 6 31v5l-24 1-4-13-2-15-1-9-2-9-1-16-1-3v-52l3-20 4-33 2-7 2-12 3-10 3-9 4-14 6-16 7-18 7-15 9-16z" fill="#FDF1D6"/>
<path transform="translate(155,353)" d="m0 0 5 2 8 3-2 1-2 24v12l2 16 5 16 1 1 1-20 2-1 3 14 4 12 6 11 9 11 9 9-4 1-5-1h-24l-11 2v2l-10 6-9 10-9 18-2 1h-18l-3-3-3-9v-23l4-27 7-26 8-20 11-20 9-12z" fill="#4F6B70"/>
<path transform="translate(630,460)" d="m0 0h18l18 4 13 5 19 11v3l-11-3-16 5-7 6-5 10-4-1-7-4 4 8 3 13-1 12-5 15-5 8-7 6-1-2v-14l-1-11-3 11-3 18-4 6-4 4-6-1-6-12-1-4-1-29-3 7-2 10v27l-9-1-7-8-2-6-1-25-2-1-1 9-2-1 1-15 5-13 6-9 1-3h-5l2-4 7-11 5-6 11-8 13-5z" fill="#E7A973"/>
<path transform="translate(684,637)" d="m0 0h2v31l3-5 9-6 3-1h11l12 6 4 6 2 9 4-6 4-4 3-1h12l10 7 4 6 3 9 5-1h8l5 3-1 10-2 6-1 13 6 11 6 13 1 5v16l-3 9-8 11-7 6-12 5-5 1h-15l-12-3-9-2-5 1-17 1-13 4h-17l-13-4-6-3-6-5v-3l5-2 14 8 9 3h9l11-4 17-12 7-1 10 5 9 5 11 4h13l10-4 8-7 4-9 1-4v-8l-4-8-7-7-8-4-15-3 2-6 5-12v-11l-5-10-1-10-5-5-5 1-6 9-9 2-8-7-6-4-2-7-1-1h-8l-2 3-2 6-11 9-4 6-2 5-3 1-8-4-3-5-7-2-3 5v9l-4 10v11l4 8 4 6-1 4-3 5-4-2-9-14-2-4-1-10 5-12 3-7-3-4-1-9 4-7 4-3 9-2 4-6 8-16 7-16z" fill="#96552F"/>
<path transform="translate(334,357)" d="m0 0 5 1 16 8 12 8 14 12 7 7 10 13 10 17 8 17 2 7-10 10-6 12-4 13-2 20-1 1h-32l-1-4 1-8v-29l-2-20-5-23-4-15-7-21-7-15-4-8z" fill="#4E6A6F"/>
<path transform="translate(372,55)" d="m0 0h4v98l-6 11-4 11v4l4 2v42l4 32v14l-1 16-24-2-7-1 2-19h3v10l-1 7 6 1-1-62-3-108-2-51 4-2z" fill="#F9867D"/>
<path transform="translate(553,190)" d="m0 0h2l4 19 6 16 7 10 9 10 16 16 7 8 2 1 5 15v18l-4 11-8 7-5 2h-10l-10-4-10-9-8-12 1-2 9-3 6-4 6-7 3-11-1-11-5-10-8-7-5-2h-20l-8 4-8 8-4 8-1 4v14l4 7 8 7 6 3 8 1-1 6-7 12-8 7-7 3h-8l-6-3-5-4-5-12-1-6v-11l4-16 7-11 9-10 9-8 5-5 9-12 5-11 3-10 2-14z" fill="#FBFBFA"/>
<path transform="translate(236,549)" d="m0 0h9l12 3 11 7 7 8 5 10 1 5v11l-3 9-4 7-8 9-11 6-8 2h-14l-9-3-9-5-8-8-4-8-1-4v-20l4-10 9-10 7-5 9-3z" fill="#5C777F"/>
<path transform="translate(724,279)" d="m0 0 4 5 6 19 6 24 5 27 3 26 1 16v26l-1 11-2 13h-1l-3-15-6-20-11-27-6-12-12-19-8-11-2-2v-4h2l-9-23-4-15-1-11 16 1 15-4z" fill="#F9867E"/>
<path transform="translate(217,300)" d="m0 0 9 3 7-1 4-2h3l-2 4-1 1v7l2 3 3 1h9l5-3 4-1v3l5 2v2l5 2 7 6 7-1 4-8 7-4 10-1 5 4-7 8-11 9-16 8-18 6-17 3-12 1h-10l-26-3-17-5 1-4-4-2-4-5-2-1v-2h-3l-4-5-1-5 1-2 5 1 7 4 2 7 2 1h6l8-8 9-5v-4h5v2l6 2h6l6-5 1-4-3-5-3-2z" fill="#E6DDCE"/>
<path transform="translate(710,721)" d="m0 0h11l10 4 20 15 13 8 3 1 3 5v6l-9 12-5 1h-10l-18-6-14-2-13 5-7 3-4 1h-9l-8-6v-3h-8v-6l5-6 17-10 7-8 6-8z" fill="#5C777F"/>
<path transform="translate(108,691)" d="m0 0h1v68h-61v-61l1 3h17l33 4 8 2z" fill="#E5DCCC"/>
<path transform="translate(662,127)" d="m0 0h10l15 2 15 6 11 8 10 10 6 10 2 5 1 7v37l-3 24-3 12-8 13-4 3 3-14 5-18 3-20v-23l-3-16-4-10-3-1 1 13-4-2-10-9-6-4 7 14-5-2-15-15-5-2 5 7v2l-5-1-16-8-3 1 2 13 2 5 2 18 1 4 1 13v18l-2-4-1-1-4-31-5-19-7-16-7-9-7-6-3-3v-3l16-6z" fill="#E6A974"/>
<path transform="translate(560,637)" d="m0 0h1v114h-61l-1-7v-67h1v29l20-2 20-1h19z" fill="#E5DDCE"/>
<path transform="translate(614,331)" d="m0 0h2l4 9 1 10-4 1-9 10-13 10-17 10-17 7-8-1-17-8-17-12-12-11-10-13-4-4 1-4h2v-2l5 2 10 5 11 1 13 14 8 4 4 1h20l10-4 7-6 7-10 13-3z" fill="#E5DDCE"/>
<path transform="translate(237,638)" d="m0 0h10l1 4-2 10-4 12-7 12-8 9-8 7-18 14-13 10-10 10-5 9-1 6 2 5 7 1 7-7 7-8 8-8 13-8 13-6 14-5 4-5 1-23 2-2 5 1 3 4 2 9-1 11-5 10-8 6-25 10-10 6-11 11-7 8-7 6-2 1h-11l-6-4-5-6-2-6 1-9 7-12 11-12 14-12 18-13 9-8 11-14 4-12z" fill="#F08276"/>
<path transform="translate(440,138)" d="m0 0h9l12 2 11 6 3 3v2l-7 4-8 9-4 6h-2l1-6-1-2-5 2-11 8h-2l2-5 4-5h-3l-6 4-10 8-7 10h-2l1-6 4-8-5 1-7 6-6 7h-1v-11l2-6-4 2-5 14v29l6 29 5 15 1 12-4-2-6-9-5-13-3-20v-40l2-13-4-1 2-5 10-11 14-9 13-5z" fill="#E6A872"/>
<path transform="translate(274,708)" d="m0 0 1 2h56l5 1-4 12-7 16-6 13h-62l1-5 10-24z" fill="#E6DECF"/>
<path transform="translate(303,148)" d="m0 0h7l4 16 1 5v10l-5-5-4-15-1-3h-2v-2l-9 2-16 8-12 8-9 8-6 8-1 2-8-1-11-2h-19l-16 3-12 6-5-1-10-8-17-11-16-6-12-2 5 3 8 6-2 4h-2l-1 5-1 2h-6v2l9 3 7 4v3l-12 9 1 4 3 1v2h-2l-2 7-3 5-1 3h-3l-10-15-7-16-4-21-1-16 1-2 19 1 14 3 21 7 15 9 13 9 10-3 7-2 8-1h27l10 1 11-12 11-9 13-8 16-6z" fill="#F6F5F1"/>
<path transform="translate(721,173)" d="m0 0h2l3 16v23l-3 20-6 21-5 3-5 4-3 1h-11l-7-4-12-10-4-8-1-18 6 1 2 2 4 1v-2h2l-1-7 1-3 7-3 5-5 4-1 6 2 1 4 3-5 3 1 2-7 2-13h2l1-5z" fill="#985630"/>
<path transform="translate(392,54)" d="m0 0h22l1 4-3 57-1 10 3 1-12 5-11 7-6 5h-2l-2 4h-1l1-60 1-32z" fill="#FA877F"/>
<path transform="translate(291,487)" d="m0 0h13l10 4 8 6 6 8 3 7v13l-5 7-5-1-3-15-1-1-4 15-4 8-6 4-13 1-6-4-3-4-1-4v-8l3-10-4 1-8 14-4-2-3-5v-8l4-10 9-10 10-5z" fill="#FBFBFA"/>
<path transform="translate(180,478)" d="m0 0h9l9 2 9 5 7 6 5 8 1 4v9l-3 4-4-1-8-14-3-1 3 10v12l-4 6-3 2-5 1h-8l-5-2-6-7-3-10-2-6-2 6-1 11h-5l-7-8-2-6 1-10 6-11 6-5 10-4z" fill="#FBFAF9"/>
<path transform="translate(355,640)" d="m0 0h8l11 6 8-5 9-1 8 4 5 8v8l-3 9-8 10-17 17-5-1-13-12-8-9-5-8-2-7 1-9 4-6z" fill="#FCFCFA"/>
<path transform="translate(435,708)" d="m0 0h32l1 4h2l1 4h2l1 5h2l3 5h2l10 23v3h-46l-9-1-1-3-3-3-6-15-4-9v-3l-3-1 1-7 3-1z" fill="#E5DDCE"/>
<path transform="translate(236,549)" d="m0 0h9l12 3 11 7 7 8 5 10 1 5v11l-3 9-4 7-8 9-11 6-8 2h-14l-9-3-9-5-8-8-4-8-1-4v-20l4-10 9-10 7-5 9-3zm-4 11-8 4-8 8-4 9v15l5 10 8 7 7 3 9 1 9-2 9-6 6-9 3-11v-9l-3-8-8-8-9-4z" fill="#F5F9F6"/>
<path transform="translate(109,587)" d="m0 0h33l12 6 6 10v13l-5 9-8 5-6 2h-32l-1-44z" fill="#171106"/>
<path transform="translate(200,118)" d="m0 0 5 1 10 22 9 22v3l2 1-18 1-14 3-6 2-6-1-10-8-15-8-3-2 5-3 11-10 13-10z" fill="#F9867D"/>
<path transform="translate(769,706)" d="m0 0 4 4 4 7h3l4 2 6 11 6 13 1 5v16l-3 9-8 11-7 6-12 5-5 1h-15l-12-3-9-2-5 1-17 1-13 4h-17l-13-4-6-3-6-5v-3l5-2 14 8 9 3h9l11-4 17-12 7-1 10 5 9 5 11 4h13l10-4 8-7 4-9 1-4v-8l-4-8-7-7-6-3v-2l2-2 1-9-3-9-2-4v-5z" fill="#9C6132"/>
<path transform="translate(684,637)" d="m0 0h2v33l5-4 11-1 1-2 2 4-2 1-2 13-13 11-5 10-3 1-8-4-3-5-7-2-3 5v9l-4 10v11l4 8 4 6-1 4-3 5-4-2-9-14-2-4-1-10 5-12 3-7-3-4-1-9 4-7 4-3 9-2 4-6 8-16 7-16z" fill="#985630"/>
<path transform="translate(640,123)" d="m0 0h11l-4 3-12 5-11 7-5 6-4 4-2 3-6-1-13-4h-13l-10 4-5 3-2 3-4-1-10-6-10-3h-10l-15 4-18 8-10 9-7 10-8 17-4 14-2 21-2 19-4 3v-37l5-24 5-13 8-12 4-5 8-7-3-5-13-8v-1h7l17 7 2 4 11-6 14-5h23l10 4 5 1 7-4 4-1h21l10 4h3l4-5 10-8 8-4z" fill="#FAF8F4"/>
<path transform="translate(647,693)" d="m0 0 2 4 3 5-13 28-9 19-4 3-7-1-8-14-12-23-5-12 7-2 42-2 3 1z" fill="#E6DECF"/>
<path transform="translate(634,162)" d="m0 0 2 3 7 19 4 25 3 26 4 17 8 16 4 6 5 36 6 21-4-1-6-3-2-3-2-10-3-8v-9l3-2v-11l-2-10-3-6-4-1-2 2-5 1-2 3v6 4 12l2 4 3 10 4 12v2h2l1 4 8 17 8 15 3 8v4l-4-1-5-5-8-7-2 2-2-5 5 1 9 7h1l-3-9-1-4h-2l-7-8-2-4-3-9-4-9-2-11-1-4-4-12-8-20-3-8-2-7 4-1 5 5 6 3-3-59-1-19-2-14-2-1-1-3z" fill="#CF915B"/>
<path transform="translate(634,440)" d="m0 0h13l16 3h8l5 1 12 4v-6h1v6h2l4 4v2h2l4 5 3 7 6 7 8 12 3 3 5-3 2 4-1 2h2l2 10-4 1-26 1-17 2-13 7-4-1-6-7-3-3 5-10 8-7 16-5 11 3h3l10 8 6 5 3 1-9-15-12-14-11-9-16-9-12-4-10-2-22-1v-1z" fill="#A86736"/>
<path transform="translate(177,234)" d="m0 0h15l7 6 3 7v18l-5 8-5 4-9 2-12-3-9-9-2-7h-2v-2l-3 1v-3l-3-1v-3l8-7 10-8z" fill="#19140A"/>
<path transform="translate(264,230)" d="m0 0h8l12 6 3 3 4 1v2l5 1 5 3-1 3h-9v8l-3 6-8 8-7 2v2h-8l-8-4-7-6-3-10v-11l6-9 5-4z" fill="#19140A"/>
<path transform="translate(348,390)" d="m0 0 3 1 8 16 8 15 9 24 6 19 3 15 3 12v11h-25l-1-4 1-8v-29l-2-20-5-23-4-15-4-12z" fill="#3C595C"/>
<path transform="translate(176,414)" d="m0 0 2 3 6 12 11 13 9 9 13 10v2h-3l2 5h3l1-3 6 2 8 5 5-1 13-11h2v-2l5-2 1-3 6-5 10-13 5-7 2-1 3-10h1l-1 9-4 12-9 16-11 14-12 15-9 14-2 4-3-1-4-10-7-9-8-8-13-10-11-11-9-13-4-8-4-13z" fill="#E6DECF"/>
<path transform="translate(394,182)" d="m0 0 1 4v9l4 1 8 20 7 14 6 8 2 3 4 1 6-4h2v-2l4-1 1-3 6-1 1 8-1 4h-2l-1 5-2 3h-2l-2 6-3 1v3l-8 3h-8l-5-4-1-2-5-2-3-10-4-1-4-18-3-15v-29z" fill="#985630"/>
<path transform="translate(662,127)" d="m0 0h10l15 2 15 6 11 8 10 10 6 10 2 5 1 7v37l-3 24-3 12-8 13-4 3 3-14 5-18 3-20v-23l-3-16-5-12-8-10-7-6-12-6-13-3h-43v-2l13-5z" fill="#F9F7F4"/>
<path transform="translate(440,138)" d="m0 0h9l12 2 11 6 3 4-5-1-5-2-7-1h-21l-17 4-11 6-7 7-5 9-4 11v29l6 29 5 15 1 12-4-2-6-9-5-13-3-20v-40l2-13-4-1 2-5 10-11 14-9 13-5z" fill="#FAF8F5"/>
<path transform="translate(113,166)" d="m0 0 9 1 6 3 9 7-2 4h-2l-1 5-1 2h-6v2l9 3 7 4v3l-12 9 1 4 3 1v2h-2l-2 7-3 5-1 3h-3l-10-15-7-16-1-8 2 3 1 1v-2h2l1-10 1-16z" fill="#F6857B"/>
<path transform="translate(396,176)" d="m0 0h1l2 12 3 6v4l4 8 1 4 4 9 3 4v2l5 2h2l1-7h2l2-5 3-6 3 1 3 11 2 7 1 2 4-2h4l1-3 1 5v12l-2 11-4 10-5 7-6 4-3 1h-13l-10-5-1-4-2-13-2-7h3l4 10 5 2v2l4 2 1 1h8l5-2h3v-3l3-3 2-4h2l2-5 1-3h2v-12l-6 2-3 3h-2v2l-9 5-5-2-4-7-4-6-6-12-8-20-3-1-1-12-1-4z" fill="#9E6130"/>
<path transform="translate(459,386)" d="m0 0h1l4 14v3h8l8 12 7 8 10 8 13 12 7 11 8 8 4 8 1 7-4-4-7-10-8-10-12-11-11-7-13-5-5-1h-21v-7l6-26z" fill="#CF915B"/>
<path transform="translate(581,447)" d="m0 0 2 1v13h2l1-3h2l2-4 1 6-9 9-9 15-5 11-2 7-3 1h-15l-2-4-3-3-3-7-1-4h-2l-1-2-1-13 5-19 3 1 9 19 8 13h3l5-7 6-11 5-10z" fill="#E5DDCE"/>
<path transform="translate(183,232)" d="m0 0h12l6 5 2 5 4 9 4 2h1v8l-5 13-8 11-11 11-10 7-14 6-10 3h-7l2-1 1-5 6 1 4-5 3-1 1-2h2v-2h2v-2l2-2 2-4h2l3-6-7-1-8-7-4-12 1-3 3 3v4l3 1 4 5v2l16 3 8-3 5-4 3-6v-18l-4-8-5-4-11-1z" fill="#4C6264"/>
<path transform="translate(342,58)" d="m0 0h4l1 3 3 80 2 78v62l-6-1v-9l1-8v-43l-2-40-2-60-2-39v-22z" fill="#FDF2D8"/>
<path transform="translate(235,571)" d="m0 0h10l10 4 5 7 1 4v12l-5 8-5 4-8 3-11-1-9-6-3-5v-9l4-1 3 2 4-1v2l3 1 7 2 4-1 1-8-3-3h-7l-1 2h-2v-2h-2v-8l1-3z" fill="#F6FCF9"/>
<path transform="translate(155,353)" d="m0 0 3 1-2 5-10 15-8 16-9 21-5 15-4 20-1 8v26l4 13 2 9-4-1-7-11-4-12v-25l4-20 5-18 8-20 11-20 9-12z" fill="#F8F6F2"/>
<path transform="translate(504,204)" d="m0 0h9l6 4 5 7 1 4v7l-5 9-5 4-6 2-10-1-6-4-4-7-1-8 3-8 8-7z" fill="#171106"/>
<path transform="translate(601,203)" d="m0 0 10 1 8 7 3 8-1 8-4 7-5 4-4 2h-9l-8-5-5-7-1-9 3-8 7-6z" fill="#171106"/>
<path transform="translate(743,360)" d="m0 0h2l2 11 2 25v26l-1 11-2 13h-1l-3-15-6-20-11-27-1-4 6-7 8-6-4-1 7-4h2z" fill="#F7887C"/>
<path transform="translate(300,153)" d="m0 0 3 1v2h2l3 7 4 13 2 2 2-4v9l-2 12-3 11h-2l-1 3-5-2-1-3h-2l-2-6-10-7 2-4 11-6 1-2h-16l-7-1 1-4 7-9 8-7z" fill="#F6847B"/>
<path transform="translate(261,554)" d="m0 0h5v3l6 1 6 7 3 5 3 4 3 8v14l-4 12-6 9-11 9h-2v2l-12 4h-22l-14-5-7-6-4-4v-2l-3-1 1-5h-2l-3-11v-13l3-9 3-3-1 5v20l3 9 9 10 9 5 9 3h14l11-3 10-7 8-10 3-7 1-5v-11l-3-10-8-11-8-6z" fill="#4B666B"/>
<path transform="translate(288,354)" d="m0 0h4l1 6-3-2-4 6-16 8-18 6-8 2h-24l-20-5-12-5-10-6 2-1 17 3 19 2h15l21-2 16-4 16-6z" fill="#E6DECF"/>
<path transform="translate(453,446)" d="m0 0h17l10 4 8 5-2 1-9-3-8-1h-10l-12 3-10 7-4 8 7 2-1 5-6 7-6 15-1 3v13l2 22v4l-3-1-5-10-1-5v-22l5-17 5-8-5 3-5 5-4 2 2-9 4-10 7-9 9-8 11-5z" fill="#FAF8F5"/>
<path transform="translate(721,173)" d="m0 0h2l3 16v23l-1 8h-2l-2-12v-12l-4 1-3 12-5 12-7 12-1 3-6 2-4-2v-2l-5-2-12-6h-2l-2 2-1-7 6 1 2 2 4 1v-2h2l-1-7 1-3 7-3 5-5 4-1 6 2 1 4 3-5 3 1 2-7 2-13h2l1-5z" fill="#9E6230"/>
<path transform="translate(701,656)" d="m0 0h11l12 6 4 6 2 9 4-6 4-4 3-1h10l2 3-5 2h-3v2l2 1v2h2l2 4h-6l-7 10-9 2-8-7-6-4-2-7-1-1h-8l-3 2 1-7 2-2-2-1-8 2-6 1-1 3h-2l2-6 11-8z" fill="#9E6230"/>
<path transform="translate(630,460)" d="m0 0h18l18 4 13 5 14 8v2l-7-1-15-7-13-3-10-1h-13l-14 3-11 6-7 7-1 3 6 2v3l-9 6h-2l-2 4-8 13-5 13-2 9-2-1 1-15 5-13 6-9 1-3h-5l2-4 7-11 5-6 11-8 13-5z" fill="#FAF8F4"/>
<path transform="translate(656,265)" d="m0 0 4 4 3 8 1 7v12l-3 1v9l3 8 2 10 1 2h-4v-2h-4l6 10-1 3 6 12 3 7-1 3-8-15-8-17-1-2 1-2h-2l-8-22-1-5-1-3v-11-3-6l3-4 6-2z" fill="#B6753F"/>
<path transform="translate(466,329)" d="m0 0 3 1v8l-8 25 1 3 2 2-1 6-8 25-5 23-1 7-6 3-3-1 2-12 7-23-6 4-4 2 2-6 10-17-4 2h-4l2-5 3-5 11-27 5-12z" fill="#F9F7F4"/>
<path transform="translate(659,154)" d="m0 0 5 1 12 6-2 2h-3l-3 1 2 13 1 8 1 14-1 9-1 3-1 6v13l3 11 3 6 11 9 7 4h11l7-4 3-3h2l-1 12-10 6-8 1-10-3-9-8-9-16-4-15v-7h1v-14l-1-13-2-15-2-11-1-1-2-13z" fill="#B5743F"/>
<path transform="translate(769,706)" d="m0 0 4 4 4 7h3l4 2 6 11 6 13 1 5v16l-3 9-8 11-4 2 1-3-4 4-2-1v-3l6-8 4-11v-8l-4-8-7-7-6-3v-2l2-2 1-9-3-9-2-4v-5z" fill="#9C6131"/>
<path transform="translate(230,532)" d="m0 0h21v3h-11l-13 2-12 5-11 8-9 10-6 10-2 8h-1l-1 6v19l1 6h2l1 5h2l7 14 1 1h3l4 5 4 4-3 7-14-14-7-11-5-12-1-4v-25l4-13 5-9v-4l-12-1-13-4-7-5v-1h10l1 3h3v2l5 1 3 1h19 2l15-10h2v-2l9-4z" fill="#E1D7C7"/>
<path transform="translate(770,754)" d="m0 0 2 2 1 3v10l-3 5-5 4-5 2-10 1-9-3-14-6-6-2-7 1-19 9-6 1h-12l-8-6-5-6v-8l1 4 6-1 2 1 3 5 5 3h9l10-3 11-5 4-1 16 3 15 5h15l2-4 6-8z" fill="#3C595D"/>
<path transform="translate(307,211)" d="m0 0 4 1 7 11 4 13 3 15 1 8v13l-2 14-4 15-2 5-1-2-5 1-19-1 1-5 3-2 9-2 2-2 5-2 3-3 2-12v-12l-3-25-5-14-2-5 1-4 1-3-3-1z" fill="#3B5558"/>
<path transform="translate(672,339)" d="m0 0h2l13 17 12 17 13 24 6 15 9 30 2 16-4-4-6-12-4-13-5-13-9-20-11-22-3-7-2-2-2-7-4-4v-4l-5-6-2-1z" fill="#B5753F"/>
<path transform="translate(565,96)" d="m0 0 6 2 27 15 7 6 3 1-1 3h-8l-4-1h-21l-10 2-8-1-10-2v-1h8l3-9z" fill="#F5857A"/>
<path transform="translate(701,691)" d="m0 0h12l7 4 1 3v12l-2 5-18 6v2l-5 1-5-9-1-6h-2v-6l6-8z" fill="#5A757D"/>
<path transform="translate(665,675)" d="m0 0 4 3h-4v4l-3 2-1 4-1 7-1 6-1 7-3 8v11l4 8 4 6-1 4-3 5-4-2-9-14-2-4-1-10 5-12 3-7-3-4-1-9 4-7 4-3 9-2z" fill="#985630"/>
<path transform="translate(334,357)" d="m0 0 5 1 16 8 12 8 14 12 7 7 10 13 10 17 8 17 2 7-4 2-9-19-10-16-9-11-9-10-7-7-14-11-16-10-6-5z" fill="#F8F6F3"/>
<path transform="translate(219,557)" d="m0 0 3 1-2 5-6 8v7l-1 3v15l5 10 6 7 1 2 13 5 2 4-3 1h-9l-10-5-10-9-4-6-2-7v-20l4-10 10-9z" fill="#FAFAF8"/>
<path transform="translate(217,300)" d="m0 0 9 3 7-1 4-2h3l-2 4-1 1v7l2 3 3 1h9l5-3 3-1-1 5-3 6-7 4h-8l-7-3-4-4-2 4-4 3-3 1h-9l-5-3-6-8v-2l6 1 4 2h6l6-5 1-4-3-5-3-2z" fill="#201F17"/>
<path transform="translate(710,721)" d="m0 0h11l10 4 20 15 13 8 2 4-5-1-25-17-5-4-8-3h-9l-8 4-14 18-7 7-13 7-7 1v-5l5-6 17-10 7-8 6-8z" fill="#F8F7F5"/>
<path transform="translate(668,710)" d="m0 0h8l6 4 5 8 1 4v8l-3 5-4 2-9-1-5-4-7-10v-8l1-2h2l2-4h3z" fill="#5E787F"/>
<path transform="translate(101,161)" d="m0 0 19 1 14 3 21 7 15 9 13 9 4 1-1 4-5 1-15-11-16-10-14-5-19-3-5 1-1 16-2 10h-2l1 3-2 1-4-13-2-14v-8z" fill="#F3F0EA"/>
<path transform="translate(285,164)" d="m0 0 3 1-8 10-1 3 23 1-1 3-12 7v2l10 7 2 8-9-3-10-5-16-5-2-2 1-4 8-12 7-7z" fill="#161106"/>
<path transform="translate(634,353)" d="m0 0 4 2 5 6 7 11 5 10 8 20 3 10v5l-5-3-9-11-8-10-5-16-5-20z" fill="#B6753F"/>
<path transform="translate(552,319)" d="m0 0 4 2 6 7 10 4 4 4-2 5-6 5-4 2h-13l-6-4-5-5v-6l7-7z" fill="#F28478"/>
<path transform="translate(135,173)" d="m0 0 5 1 4 4 11 8 10 10-2 3h-4v2l-7 3-9 5-1 2-7 2-6-1v-4l10-8h2l-1-3-15-7v-2l18-3-1-5-7-6z" fill="#161005"/>
<path transform="translate(737,696)" d="m0 0h6l6 4 4 4v10l-5 9-4 4-7-1-5-4-4-2-1-2v-12l2-4z" fill="#5C777E"/>
<path transform="translate(109,459)" d="m0 0h1l1 19 4 12 6 9v2l4 1-1-8h2l1-5 7-7 7-8 7-7 6-4 5 2v2l3 1-10 6-9 10-9 18-2 1h-18l-3-3-3-9v-23z" fill="#3C575A"/>
<path transform="translate(36,434)" d="m0 0 3 1 2 5 3 23 4 15 1 9 1 4h2l3 3h2v2l5-1 3 2v4l-13 2h-9l-2-7-2-13-1-17-2-5-1-7v-16z" fill="#FDF5E5"/>
<path transform="translate(346,450)" d="m0 0h1l1 7v29l-3 15-5-5-8-10-11-8-12-5-5-1h-16l2-2 14-1 4-1v-2l3-1 3-4 6 1v2l5 2 12 11v2h2v2h5 2z" fill="#3B5558"/>
<path transform="translate(340,288)" d="m0 0h17l17 1-1 18-1 3-10-3-25-6 1-8z" fill="#F18377"/>
<path transform="translate(659,324)" d="m0 0 4 1 2 4 7 8 1 2-1 4 4 2 5 6-2 1 6 8 2 6 3 4 4 10 5 10-1 3-8-16-4-5-1-4h-3v-2l-2 2v10h-4v-2h-3v-2l-6-3v5l-3-4-6-12 1-3 13 11 1 2 3 1-3-9-3-12-6-10-1-4 1-3-5-7z" fill="#A86735"/>
<path transform="translate(342,58)" d="m0 0h4l1 3 2 50v46l-3 2-2-13-3-65v-22z" fill="#FDF4E0"/>
<path transform="translate(544,248)" d="m0 0h13l11 4 4 4-1 6-2 2h-7l-3-2-9-1h-8l-6 3-4-2-1 3h-2l-1 3-1-3v-7l4-5 9-4z" fill="#4F6B70"/>
<path transform="translate(183,232)" d="m0 0h12l6 5 2 5 4 9 4 2h1v8l-5 13-8 11-5 5-6-1v-4l-2 1v-4l-3-1-4-3 10-1 7-4 5-8v-18l-4-8-5-4-11-1z" fill="#3F5A5D"/>
<path transform="translate(684,637)" d="m0 0h2v28l-1 8-1 13-4-2-9-6-5-2 3-9 9-17z" fill="#181308"/>
<path transform="translate(494,461)" d="m0 0 5 5 8 10 8 13 6 11-1 3h-10l-11-18-6-7-2-2-1-8v-5z" fill="#A86735"/>
<path transform="translate(391,187)" d="m0 0h1l1 25 6 29 5 15 1 12-4-2-6-9-5-13-3-20v-21l3-2z" fill="#F8F6F3"/>
<path transform="translate(229,320)" d="m0 0 3 1 2 3 6 2h12v6l-8 6-7 2h-13l-9-4-4-3-1-4 10-2 6-3z" fill="#FAF9F8"/>
<path transform="translate(236,549)" d="m0 0h9l12 3 8 5-3 1-1-1-9-2v5l4 2 1 2-9-3h-16l-8 4-7 7-2 3h-2l1-6 6-7 1-4-5 2-7 7v-3l7-7 9-5z" fill="#F4F8F4"/>
<path transform="translate(261,468)" d="m0 0h3v5l4 1 3 1v2l3 1-11 7-8 9-5 9-2 1-10-1-1-2h2l2-6 9-13 8-10z" fill="#3E595D"/>
<path transform="translate(659,154)" d="m0 0 5 1 12 6-2 2h-3l-3 1 2 13 1 8 1 14-1 9-1 3-1 6v16l-3 2-1-5v-7h1v-14l-1-13-2-15-2-11-1-1-2-13z" fill="#B67540"/>
<path transform="translate(235,286)" d="m0 0h7l2 4v6l-4 5-6 1-3 2-7-1-7-2-4-5-1-5 4-4h13z" fill="#EF8276"/>
<path transform="translate(235,569)" d="m0 0h10l7 4-2 1-5-2-10-1-1 3h-2v7l-1 4h2v2h2l1-3h7l4 4v5l-4 4-4 1-6-2-2-4h-3l-1 2h-2l-2-2h-3v6l-2-3v-9l4-8 5-5z" fill="#F0EEE6"/>
<path transform="translate(444,251)" d="m0 0h1v6l-6 11-8 6-3 1h-13l-10-5-1-4v-9l4 2 5 4 3 1h11l5-2h3l2-4 5-5h2z" fill="#B4733D"/>
<path transform="translate(300,245)" d="m0 0 4 1-2 9-2 3v2l-3 1-2 4-4 1-2 4-8 5-3 1-1 3-5-1-2 1v-2h-9l-5 1-4 1-6-7 1-4 4-1 1-2 1 3 12 6 8 1v-2l8-4 7-7 2-5 1-8 9-1z" fill="#4A6062"/>
<path transform="translate(730,780)" d="m0 0 6 2 11 5 4 1h13l10-4 4-1 1 3 4-4 2 1-3 5-12 6-8 2h-15l-12-3v-2l-10-2 2-3h2z" fill="#B1703C"/>
<path transform="translate(687,387)" d="m0 0h5l6 11v2l2 1 1 5 2 1 2 7 2 5v4 6l1 4-1-2-4-2-7-14-8-9-2-6-2-3v-8z" fill="#985630"/>
<path transform="translate(593,172)" d="m0 0h14l10 5 7 8v2l-5-2-8-4-4-1h-8l-7 2-9 7-5 9h-3l1-9 5-9 7-6z" fill="#F8F5EF"/>
<path transform="translate(652,780)" d="m0 0 6 2 7 5 12 4h9l11-4 7-5 2 1-1 5h-2l1 5-13 4h-17l-13-4-6-3-6-5v-3z" fill="#A06034"/>
<path transform="translate(791,743)" d="m0 0 1 2h3l1-2 1 5v16l-3 9-8 11-4 2 1-3-4 4-2-1v-3l6-8 4-11v-8l-2-7 5-4z" fill="#9F6131"/>
<path transform="translate(766,755)" d="m0 0 4 1-1 5-8 11-5 1h-10l-18-6-14-2-13 5-7 3-4 1h-9l-8-6v-3h-8l3-2 7 1 3 5 8 1 8-1 5-2 10-5 10-1 11 2 9 3 7 3 8 1 7-4 4-10z" fill="#4E696D"/>
<path transform="translate(582,524)" d="m0 0h2l2 13 6 9 5 1 4-4 1 25-9-1-7-8-2-6-1-25z" fill="#C98B56"/>
<path transform="translate(771,756)" d="m0 0 2 3v10l-3 5-5 4-5 2-10 1-9-3-14-6-6-2-7 1-19 9-6 1h-12l-3-3h17l5-1v-2l6-2 8-5 9-2 7 2 15 4 6 2h14l1-1h5v-2h2v-3l2-1z" fill="#2F3A37"/>
<path transform="translate(633,426)" d="m0 0 2 3v3l5 2h11v2l3-1 15 3 5 3 8 2v2h4l2-4v7l-9-2-7-1-1-1h-8l-16-3h-13l-7 1-2-1 1-4z" fill="#D1935D"/>
<path transform="translate(634,162)" d="m0 0 2 3 7 19 4 25 3 26 2 10-1 4-3-8-2-2-2-5v-8l-1-4v-4h-2l-2-27-2-18-2-1-1-3z" fill="#D0925C"/>
<path transform="translate(608,535)" d="m0 0h1v5h2l5 10 4 5 7-1 1-5h2v7l-3 8-6 6-6-1-6-12-1-4z" fill="#C78954"/>
<path transform="translate(514,530)" d="m0 0 3 1v8l2 1-3 12-7 14-5 7-3 1-1-2v-10l8-16 5-15z" fill="#E2DACB"/>
<path transform="translate(433,527)" d="m0 0 2 4 7 10 6 6 3 1 1-4 1-17h1l1 23 2 8v5h-6l-6-4-5-6-4-8-3-13z" fill="#B77742"/>
<path transform="translate(572,257)" d="m0 0h1l-1 10-4 1-9 1-5 1h-20l-6 1-1-6h4l1-4 5 2 6-3h11l7 2 1 1 7 1 1-3z" fill="#3C5558"/>
<path transform="translate(101,161)" d="m0 0 15 1 2 3-5 2-1 1-1 16-2 10h-2l1 3-2 1-4-13-2-14v-8z" fill="#FAF9F6"/>
<path transform="translate(649,500)" d="m0 0 3 4 3 13-1 12-5 15-5 8-7 6-1-2 1-11 3-3 7-14 2 1v-13l1-7z" fill="#B4743F"/>
<path transform="translate(665,675)" d="m0 0 4 3h-4v4l-3 2-1 4-1 7-4 2-1 9-2 5-5-1 3-9-3-4-1-9 4-7 4-3 9-2z" fill="#9F6231"/>
<path transform="translate(380,62)" d="m0 0h1v80l-1 6h-2l-1-5v-59l1-18z" fill="#FEF5E2"/>
<path transform="translate(483,523)" d="m0 0h1l1 13v14l-5 8-1 1h-5l-6-7-4-9-2-11 6 5v2l3 1v2l4 2 2 2 5-1z" fill="#B2723D"/>
<path transform="translate(687,359)" d="m0 0 4 2 9 14 12 22 6 15 6 19v8l-2-1-3-11-3-8-4-12v-3h-2l-3-6-6-10 1-5h-2l-2-4-2-1v-5l-3-1-1-5h-2l-3-6z" fill="#C78954"/>
<path transform="translate(206,116)" d="m0 0 3 1 8 16 9 21 3 8v5l-5-1-8-20-8-18-3-6v-5z" fill="#FDF3D8"/>
<path transform="translate(775,687)" d="m0 0h8l5 3-1 10-2 6-1 10h-1l-1-5-3 1-1-9-1-3h-2l-5-7-1-4z" fill="#9A6132"/>
<path transform="translate(326,323)" d="m0 0 12 5 16 7-3 2h-3l-1 5-6-2-20-8-1-2 4-6z" fill="#E78271"/>
<path transform="translate(500,174)" d="m0 0h11l6 4 5 5 1 4-9-3-5-2h-7l-11 4-8 5-2-1 3-5h2l2-4 7-5z" fill="#F8F5EF"/>
<path transform="translate(741,666)" d="m0 0h10l2 3-5 2h-3v2l2 1v2h2l2 4h-6l-6 8-3-1-1-6-3-2-4 4v-7l2 1 4-6 4-4z" fill="#A16432"/>
<path transform="translate(267,576)" d="m0 0 2 2 5 10v11l-5 9-3 4h-6l-7 4-5 1h-7v-1l9-2 8-5 6-9 3-11z" fill="#EFECE3"/>
<path transform="translate(309,341)" d="m0 0h2l7 12 10 24 6 17 4 17v5l-2-2-4-13-4-9-7-20-11-26z" fill="#F6F3EE"/>
<path transform="translate(154,316)" d="m0 0 14 1 5 5 4 8h6l-1 2h-6l-4-3-1-6-6-3-5-2 1 9 3 1v2h3v2l4 2 4 5 2 1v2l2 1-8-1-13-7 2-1v-2l-2-1-1-4-2-1-2-9z" fill="#F3EFE5"/>
<path transform="translate(422,708)" d="m0 0h13v1l-15 1v7l2 1 5 12 6 15v2l5 2-2 2h-5l-7-11-10-24 2-7z" fill="#F2EFE6"/>
<path transform="translate(544,248)" d="m0 0h13l11 4 3 3v2l-16-2h-10l-13 3-2 4-2 1v-6l5-5 7-3z" fill="#F6F5F2"/>
<path transform="translate(271,718)" d="m0 0 2 1-1 5-3 10v10l3 3 5 2 17 1v1h-37l1-4 10-24z" fill="#FAF4E7"/>
<path transform="translate(721,173)" d="m0 0h2l3 16v23l-1 8h-2l-2-12v-12l-4 1-2 1v-7l1-5h2l1-5z" fill="#9B6435"/>
<path transform="translate(373,255)" d="m0 0h2l4 9 1 7-2 18-2 23h-3l-1-5 1-14 1-7-1-1z" fill="#FBEED3"/>
<path transform="translate(336,362)" d="m0 0 11 6 10 7 10 8 10 9 8 8 11 14 8 13 3 5-1 2-2-1v-2l-3-1-3-5-1-4-4-4-7-11-5-4-5-7-7-6-3-3-7-6v-2l-6-2-11-8-5-3z" fill="#5D7880"/>
<path transform="translate(176,414)" d="m0 0 2 3 6 12 3 3 3 7 4 5 5 4 3 5 5 6v2l4 2-1 3-5-2-12-12-9-13-4-8-4-13z" fill="#F9EFD6"/>
<path transform="translate(334,307)" d="m0 0 12 1 3 1v14l-1 2-9-3-9-4z" fill="#F18277"/>
<path transform="translate(599,179)" d="m0 0h8l10 4 8 6 3 4-1 2-9-6-6-2h-11l-13 3-4-1 5-6 5-3z" fill="#AA6937"/>
<path transform="translate(203,573)" d="m0 0 1 2-1 3h-2l1 21 2 9 7 9 4 3v2l4 1 9 4v2l13 1h7l4 2h-22l-14-5-7-6-4-4v-2l-3-1 1-5h-2l-3-11v-13l3-9z" fill="#2E3835"/>
<path transform="translate(261,554)" d="m0 0h5v3l6 1 6 7 3 5 3 4 3 8v14l-3 10-3-4v-22l-7-13-6-7-7-5z" fill="#2E3835"/>
<path transform="translate(634,440)" d="m0 0h13l16 3h8l5 1 12 4v-6h1l2 13 2 5-5-2-16-9-12-4-10-2-22-1v-1z" fill="#B06F3B"/>
<path transform="translate(303,148)" d="m0 0h7l4 16 1 5v10l-5-5-4-15-1-3h-2v-2l-12 2 1-5z" fill="#FBF2DE"/>
<path transform="translate(360,432)" d="m0 0 3 3 1 13 2 3 1 3h-2l1 5v17l2 9 3-3 1-2h3l2 7-3 5-4 1-5 5-2 1v-37l-2-20z" fill="#2F3A37"/>
<path transform="translate(701,691)" d="m0 0h12l7 4 1 5-5-1-3-1h-9l-7 3-5 6-3 1-1-5 6-8z" fill="#EEEAE1"/>
<path transform="translate(727,674)" d="m0 0 2 2v6l4-4v2l3 1 2 9-9 2-8-7-6-4 1-3 5-3 5 1z" fill="#985730"/>
<path transform="translate(201,578)" d="m0 0h1l1 20 3 9 9 10 9 5 9 3h14l11-3 6-4h2l-1 4-5 2-8 3-1 2h-10l-9-2-10-1-7-4v-2l-4-2-7-8-2-4-1-7z" fill="#516D73"/>
<path transform="translate(168,251)" d="m0 0h2l3 11 4 4 3 1h7l5-3 3-4 2 1-3 7-6 5-6 1-7-2-5-5-3-7z" fill="#F6EFE0"/>
<path transform="translate(502,181)" d="m0 0h7l12 5v3h-23l-10 3h-5l1-3 14-7z" fill="#A56634"/>
<path transform="translate(446,232)" d="m0 0h1v18l-2 3-3 1-5 5-2 3-8 3h-11l-7-4-6-5-3-10h3l4 10 5 2v2l4 2 1 1h8l5-2h3v-3l3-3 2-4h2l2-5 1-3h2z" fill="#A56533"/>
<path transform="translate(281,247)" d="m0 0 3 1v8l-3 7-6 5-3 1h-10l-7-6-2-3v-3h2l4 4v2l8 1 6-2 4-4 3-6z" fill="#F4F1EB"/>
<path transform="translate(494,461)" d="m0 0 5 5 8 10 8 13 6 11v2l-5-1-5-11v-4l-3-1-7-10-5-5-2-4h-3l-1 2v-5z" fill="#B87843"/>
<path transform="translate(671,531)" d="m0 0h3l-1 9-7 16-9 16-6 5 1-7 6-8 7-14 5-16z" fill="#E6D5C0"/>
<path transform="translate(316,248)" d="m0 0h1l2 16v12l-2 12-5 5-10 4-9 2-8-3 2-3h8l12-2 7-3 2-12 1-7-1-2v-8l-1-7z" fill="#4D6365"/>
<path transform="translate(791,743)" d="m0 0 1 2h3l1-2 1 8-1 11-1 2h-3l-1 2-1-1-2 2-1-11-2-7 5-4z" fill="#A96836"/>
<path transform="translate(589,454)" d="m0 0 2 3-1 4-8 8-9 15-4 9h-2l1-9 10-19 4-6 1 2h2l1-3h2z" fill="#FAF4E7"/>
<path transform="translate(416,77)" d="m0 0h1v33l-1 14-5 1v-10l1-2 2-32z" fill="#FDF6E4"/>
<path transform="translate(690,448)" d="m0 0 5 4v2h2l4 5 3 7 6 7 6 9-1 2-8-8-10-11-5-5v-4l-2-1z" fill="#A76735"/>
<path transform="translate(495,498)" d="m0 0 2 3 1 4v20l-4 12-2-1-5-15 1-2 5 1 1-3z" fill="#B1713E"/>
<path transform="translate(770,754)" d="m0 0h1l1 13-3 1v3h-2v2l-6 2h-14l-12-4-9-2-7-2v-2l12 2 15 5h15l2-4 6-8z" fill="#3C595D"/>
<path transform="translate(687,726)" d="m0 0h1v8l-3 5-4 2-9-1-5-4-4-5v-2l5 1 3 3 5-1 2 1 3-2 4-1h2z" fill="#4B666B"/>
<path transform="translate(157,123)" d="m0 0m-1 1m-1 1m-1 1m-2 1 2 1-11 11 5 8v2h6l3 3-1 2-5-1-18-5 2-4 5-5z" fill="#F7EBD7"/>
<path transform="translate(611,102)" d="m0 0h7l8 4v3l-9 5-6 4-3-1 2-1-2-4z" fill="#FBF5E6"/>
<path transform="translate(323,478)" d="m0 0 4 1 2-1 7 3 5 5v2h6l-1 7-1 6-5-5-8-10-9-7z" fill="#2F3A37"/>
<path transform="translate(416,169)" d="m0 0 3 1-2 6-3 8 3-1-1 5h-3l-3-2 1-2-9 1-2 2-2-4 1-6h1l1 6 8-9z" fill="#B5743E"/>
<path transform="translate(645,201)" d="m0 0h1l4 34 2 10-1 4-3-8-2-2-2-5v-8l-2-8v-7l2-2z" fill="#AF6E3B"/>
<path transform="translate(158,175)" d="m0 0 6 2 19 13 4 1-1 4-5 1-15-11-6-4z" fill="#F7F5F1"/>
<path transform="translate(376)" d="m0 0h54l4 2-8 1h-50z" fill="#E6DECF"/>
<path transform="translate(674,531)" d="m0 0 3 2-3 12-8 17-8 12-8 8-2-4 2-5 2 3 5-6 9-16 6-14z" fill="#9F7551"/>
<path transform="translate(208,184)" d="m0 0h27l10 2v3l-14-2h-19l-16 3-9 4v-3l-2-1 15-5z" fill="#E6DED0"/>
<path transform="translate(452,161)" d="m0 0 3 1 1 2-2 6 2 1-5 14-1 4h-2l-2-14 1-5 1-3-3-1z" fill="#B6753F"/>
<path transform="translate(655,170)" d="m0 0 2 1 4 14 1 5 1-9h1l2 15 1 13v18l-2-4-1-1-4-31-5-19z" fill="#D1925E"/>
<path transform="translate(252,555)" d="m0 0 9 1 4 2 4 5 2 3v3l-6 1-13-10-1-3z" fill="#FCFDFD"/>
<path transform="translate(608,535)" d="m0 0h1v5h2l5 10 3 5h-3v8l-1 2-3-1-4-11z" fill="#CB8D57"/>
<path transform="translate(662,493)" d="m0 0 3 1 2 11 6-1h3l9-1-3 3-11 6-4-1-6-7-3-3z" fill="#B3733E"/>
<path transform="translate(537,304)" d="m0 0h2l1 6-1 5-8 7-3 1v-2l-8-1 3-3 7-4z" fill="#F2EDE2"/>
<path transform="translate(110,168)" d="m0 0h1v17l-2 9h-2l1 3-2 1-4-13v-5l3-3 4-8z" fill="#FCF2D8"/>
<path transform="translate(379,86)" d="m0 0h1v62h-2l-1-5v-35z" fill="#FCFCFB"/>
<path transform="translate(157,542)" d="m0 0h10l1 3h3v2l5 1 3 1h19l-1 3-5 3-2 2-1-4-12-1-13-4-7-5z" fill="#E4DBCA"/>
<path transform="translate(666,288)" d="m0 0 2 3 4 23 5 17-4-1-3-3-4-21-1-17z" fill="#F2E6D0"/>
<path transform="translate(32,386)" d="m0 0h1l1 48 2 7v13l1 7 2 5 1 17 1 5v7h-1l-2-9-2-20-2-9-1-16-1-3z" fill="#CF996A"/>
<path transform="translate(595,701)" d="m0 0 4 1 3 8 3 6 3 3 4 15 3 7h-2l-15-29-4-10z" fill="#F1EDE3"/>
<path transform="translate(236,584)" d="m0 0h7l4 4v5l-4 4-4 1-5-5v-6z" fill="#24261F"/>
<path transform="translate(658,357)" d="m0 0 8 6 6 5 1 2 3 1 1-3 3 4v6h-4v-2h-3v-2l-6-3v5l-3-4-6-12z" fill="#AC6B38"/>
<path transform="translate(662,295)" d="m0 0 3 2v9h2l4 22-4-1-2-3-2-10-3-8v-9z" fill="#CF915B"/>
<path transform="translate(474,139)" d="m0 0h7l17 7 2 4-9 4-4-6-13-8z" fill="#CD8F5C"/>
<path transform="translate(718,244)" d="m0 0 1 3-2 6-5 3-5 4-3 1h-11l-7-4-1-2 7 1v2h8l6-2 1-2 5-6z" fill="#A06331"/>
<path transform="translate(251,265)" d="m0 0 2 1v2l12 6 5 1v1l-9 1-5 1-4 1-6-7 1-4 4-1z" fill="#496163"/>
<path transform="translate(289,560)" d="m0 0h5v2l9-2 1 2-5 10-2 6-2-1-4-11-2-3z" fill="#E0D4C2"/>
<path transform="translate(425,499)" d="m0 0 1 3v13l2 22v4l-3-1-5-10 1-8 2-2 1-19z" fill="#FBEFD4"/>
<path transform="translate(726,727)" d="m0 0 7 1 6 3 14 10 11 7 2 4-5-1-25-17-5-4-5-2z" fill="#E6DECF"/>
<path transform="translate(600,543)" d="m0 0h1l1 25h-6l4-2-7-3-3-4v-3l5-1 1-2h2z" fill="#B6753F"/>
<path transform="translate(301,204)" d="m0 0 5 4h2l2-2-1 4-1 2 2 1-1 7 5 13-1 2-4-8-5-3-3-12 1-5-3-1h2z" fill="#566361"/>
<path transform="translate(648,466)" d="m0 0h20l8 2 12 6 5 3v2l-7-1-15-7-13-3-10-1z" fill="#FAF0D8"/>
<path transform="translate(109,459)" d="m0 0h1l1 19 1 10 3 9 2 2v4l-5-1-3-10-1-1v-23z" fill="#3F5050"/>
<path transform="translate(444,251)" d="m0 0h1v6l-6 11-8 6h-11l1-2h2l1-2h3l2-2 2 1v-2l6-5h2l2-4z" fill="#C78853"/>
<path transform="translate(490,469)" d="m0 0h2l1 4 5 4 4 7 9 9 1 9h-3l-8-14-7-9-3-3z" fill="#BA7A44"/>
<path transform="translate(783,782)" d="m0 0 2 1-3 5-5 3-2-1v-1l-12 4h-8l-3-3 1-1 15-2 8-4 3 1v2z" fill="#A66634"/>
<path transform="translate(462,532)" d="m0 0 6 5v2l3 1v2l4 2-3 1h-2v5l5 5h4v4h-5l-6-7-4-9z" fill="#C78854"/>
<path transform="translate(433,527)" d="m0 0 2 4 7 10 5 6-3 1-6-7 3 7 5 5 2 6-4-1-4-5-4-8-3-13z" fill="#C68753"/>
<path transform="translate(730,780)" d="m0 0 6 2 6 3-1 2 1 3v3l-4 1-3-1v-2l-10-2 2-3h2z" fill="#AA6937"/>
<path transform="translate(447,192)" d="m0 0h1v32l-3 3-1-2v-25z" fill="#B57542"/>
<path transform="translate(564,96)" d="m0 0 1 2-9 17-2 5h-5v-5l9-17 3 3z" fill="#FAEFD6"/>
<path transform="translate(379,455)" d="m0 0 3 4 4 10v4h2l1 4 1 9-1 3 2 4-2 3h-2l-1-8-1-7-2-7-4-15z" fill="#4D6365"/>
<path transform="translate(667,231)" d="m0 0 3 3 3 9 8 13 2 5-4 1-8-13-4-11z" fill="#D29460"/>
<path transform="translate(291,249)" d="m0 0h8l-2 1v2h-2l-1 8-6 9-4 3-7 2-4-1 8-4 7-7 2-5z" fill="#385052"/>
<path transform="translate(190,519)" d="m0 0 4 2 3 6 5-1-4 4-5 1h-8l-5-2 4-1 1-3h2l2-5z" fill="#E5DDCD"/>
<path transform="translate(262,229)" d="m0 0h11l9 2 8 1 3 4-1 2 3-1v2h-2v2l3 1-2 1-3-1v-2l-5-1-9-6-5-2h-12z" fill="#4A6062"/>
<path transform="translate(704,782)" d="m0 0 2 1-1 5h-2l1 5-13 4h-7v-1h5v-3l4-2v-2z" fill="#A76837"/>
<path transform="translate(288,354)" d="m0 0h4l1 6-3-2-4 6-4 2h-3v-2l-3 1v-2l-3-1 4-1v-2z" fill="#F5ECD5"/>
<path transform="translate(444,707)" d="m0 0h29l7 16-1 4-3-3v-3h-2l-1-5h-2l-1-4h-2l-1-3-23-1z" fill="#F2EFE5"/>
<path transform="translate(649,500)" d="m0 0 3 4 3 13-1 12-2 4v-3h-2l-1-6v-8l1-7z" fill="#AE6D3A"/>
<path transform="translate(140,175)" d="m0 0h6l11 7 5 4v2l2 1v4h-3l-8-8-13-9z" fill="#385052"/>
<path transform="translate(293,528)" d="m0 0 3 1 2 5 2 1v2l3 1v2l2 1-8 2h-7l-5-3 2-1 6 1-2-5 2-1v2h2l-2-4z" fill="#E1D8C9"/>
<path transform="translate(701,691)" d="m0 0h6l3 3-1 2-14 3-2 4-4 3 1-6 5-6z" fill="#F6FBF8"/>
<path transform="translate(129,170)" d="m0 0 6 3 8 7 1 5-7 2h-6l2-6 3-2-2-4-5-3z" fill="#A66536"/>
<path transform="translate(629,346)" d="m0 0 4 1 10 11 7 10 3 9-3-3-6-10-6-8-3-2v8l-2-3-4-11z" fill="#D1935D"/>
<path transform="translate(216,202)" d="m0 0h3v19l-2 15h-1l-1-12v-17z" fill="#5D7880"/>
<path transform="translate(267,170)" d="m0 0 2 1-15 15v5l-10 1-3 2-2-1v-2l-5-1v-2l-3-1h7l12 3 2-5 6-7 8-7z" fill="#5D7880"/>
<path transform="translate(230,532)" d="m0 0h21v3h-11l-13 2-5 2-4-1 2-3z" fill="#EDE9E0"/>
<path transform="translate(297,154)" d="m0 0 2 1-7 6-4 4-4 1-8 6v-4l8-7 3-3z" fill="#455E60"/>
<path transform="translate(264,618)" d="m0 0h2l-1 4-5 2-8 3-1 2h-10l-18-4-2-3 5 1 7 2h14l11-3z" fill="#5B767D"/>
<path transform="translate(168,251)" d="m0 0h2l3 11 6 6-1 2 1 2-5-1-5-5-2-6z" fill="#F6F3EC"/>
<path transform="translate(550,248)" d="m0 0h7l11 4 3 3v2l-16-2-7-1v-1l6-2 1-1-5-1z" fill="#F1F2EC"/>
<path transform="translate(138,211)" d="m0 0h2v2l-5 5-2 7-9 9-1-3h2l1-6 3-4 1-6 3 1v-2l-4-1 2-1z" fill="#474A42"/>
<path transform="translate(344,62)" d="m0 0 2 2 1 26v19h-1l-2-9z" fill="#FDFDFD"/>
<path transform="translate(530,466)" d="m0 0 2 1v2l4-3 1 19h2l4 8 3 5 4 4-5-1-7-10-4-9-3-11z" fill="#F8EFD9"/>
<path transform="translate(652,780)" d="m0 0 5 1v5l4 3 11 4v1l-6 1-10-4-7-6v-3z" fill="#A96936"/>
<path transform="translate(244,486)" d="m0 0h2l-1 4-6 11-3-1-3-8v-3l9-1z" fill="#F4EDE0"/>
<path transform="translate(261,554)" d="m0 0h5v3l6 1 6 7 3 5 1 2-2 5-2-3-7-11-10-8z" fill="#3B4C4D"/>
<path transform="translate(124,423)" d="m0 0h1l-1 15-1 1-3 16v21l1 3-1 6h-1l-1-5v-26l3-19z" fill="#5D7880"/>
<path transform="translate(286,167)" d="m0 0 2 2-1 6 6 2 12 1-3 3v-2h-16l-7-1 1-4z" fill="#A76637"/>
<path transform="translate(668,763)" d="m0 0 7 1 3 5 8 1 12-1-1 2h-3v2l-4 1h-9l-8-6v-3h-8z" fill="#4F6A6F"/>
<path transform="translate(599,179)" d="m0 0h8l8 3-1 3-9-1h-9l-6 1 2-4z" fill="#9C5C30"/>
<path transform="translate(486,433)" d="m0 0 6 1 9 4v2l4 2 7 7 1 5-7-6-14-11-6-3z" fill="#AF6F3B"/>
<path transform="translate(664,761)" d="m0 0 1 4 6-1 2 1 3 5 2 2-6 1 1 2-6-2-3-4z" fill="#465D5F"/>
<path transform="translate(376,84)" d="m0 0h1l1 59 1 6-4 3z" fill="#FEF3DA"/>
<path transform="translate(351,397)" d="m0 0 3 4 8 16-3 1v9l-2-4-5-19z" fill="#2F3A37"/>
<path transform="translate(164,302)" d="m0 0 2 1 3 2v2l-15 5h-7l2-1 1-5 6 1 3-2 4-1z" fill="#405D61"/>
<path transform="translate(134,222)" d="m0 0h1l-1 8-4 10-4-2v-2h-2l2-5z" fill="#F2F4EF"/>
<path transform="translate(466,208)" d="m0 0h1l-1 21-2 19-4 3v-3h2v-13l2-18z" fill="#FDF4DE"/>
<path transform="translate(308,341)" d="m0 0h1v5l-6 3-2 5-7 1-1 2v-4l-3-1 8-4z" fill="#3A5254"/>
<path transform="translate(168,543)" d="m0 0 11 3 13 1h10l-3 4-2-1h-18l-8-3v-2h-3z" fill="#906F52"/>
<path transform="translate(235,569)" d="m0 0h10l7 4-2 1-5-2h-10l-7 2-1 3-5 5-2 5-1 8h-1v-9l4-8 5-5z" fill="#E6DECF"/>
<path transform="translate(714,410)" d="m0 0h3l7 21v8l-2-1-3-11-3-8z" fill="#C68752"/>
<path transform="translate(309,460)" d="m0 0h8l-5 5-4 1v2l-4 2h-11l1-2 10-3z" fill="#4C6264"/>
<path transform="translate(224,625)" d="m0 0 15 2 2 1 18 1-3 2h-22l-6-2v-2l-4-1z" fill="#425B5E"/>
<path transform="translate(713,761)" d="m0 0 5 1v2l3 1h-7l-13 5-3 2-4-1 5-3 5-4z" fill="#4E676B"/>
<path transform="translate(616,555)" d="m0 0h3l1 2h5l1 4-3 3-8 1v-7zm-3 10h2l-1 3z" fill="#B6753F"/>
<path transform="translate(603,211)" d="m0 0 6 1 2 2-1 4-3 2-6-1-1-1v-5z" fill="#F6F2EC"/>
<path transform="translate(464,142)" d="m0 0 8 4 3 4-5-1-5-2-7-1h-27v-1l5-1 27-1z" fill="#FCF2D8"/>
<path transform="translate(651,681)" d="m0 0 3 1v6 4l-2 3-4 2-1-9z" fill="#A96836"/>
<path transform="translate(187,575)" d="m0 0 1 4-1 16 3 16-1 3-1-5h-2l-2-9v-17l1-6z" fill="#A47046"/>
<path transform="translate(545,254)" d="m0 0h10l16 2 1 4-3 3h-2l-2-6-7 1-1-2-16 1-1-2z" fill="#5D7880"/>
<path transform="translate(793,770)" d="m0 0 1 3-8 11-4 2 1-3-4 4-2-1v-3l4-1 5-5 2-5z" fill="#9C5F30"/>
<path transform="translate(404,258)" d="m0 0 1 2h2v3l4 2 3 4v2l2 1-2 1-9-3-1-4z" fill="#CF905B"/>
<path transform="translate(505,212)" d="m0 0h6l3 3-1 5-7 1-2-2v-6z" fill="#F8F5EF"/>
<path transform="translate(88,206)" d="m0 0 3 3 1 7-6 3h-4l1-4z" fill="#F9F7F1"/>
<path transform="translate(505,185)" d="m0 0 5 1h11v3h-23l-10 3h-5l1-3 5-2v2z" fill="#B6753F"/>
<path transform="translate(687,479)" d="m0 0 8 2-2 2h-8l-11 2-4 5-6 1 5-6 11-4z" fill="#B6753F"/>
<path transform="translate(472,447)" d="m0 0 6 2 9 5 1 2-11-3-8-1h-16l4-2 14-1z" fill="#F9F0DA"/>
<path transform="translate(639,132)" d="m0 0 3 1 36 1 4 2h-48v-2z" fill="#FDF3DD"/>
<path transform="translate(342,58)" d="m0 0h4v6h-1l-1 32h-1l-2-37z" fill="#FEF6E6"/>
<path transform="translate(267,576)" d="m0 0 2 2 2 11 2 1-1 9-6-2 1-8z" fill="#E6DECF"/>
<path transform="translate(494,517)" d="m0 0 1 4-1 4-1 1h1v11l-2-1-5-15 1-2 5 1z" fill="#C58752"/>
<path transform="translate(280,578)" d="m0 0 2 2v22l1 1v5l-4 6-2-3 2-6 1-12z" fill="#415C60"/>
<path transform="translate(266,239)" d="m0 0 5 1 2 2v5l-1 1h-7l-1-1 1-7z" fill="#F1E8DE"/>
<path transform="translate(271,718)" d="m0 0 2 1-1 5-4 13-1-2h-3l3-9 3-7z" fill="#F2EDE2"/>
<path transform="translate(737,696)" d="m0 0h6l6 4 3 4-6-1-5-2h-9z" fill="#E6DECF"/>
<path transform="translate(279,598)" d="m0 0h1v7l-3 9-4-1v2l-4 3-3-1 8-9z" fill="#567178"/>
<path transform="translate(670,234)" d="m0 0h2l1 7 4 2 4 6 4 4v2l-4-2-7-6-4-8z" fill="#A16432"/>
<path transform="translate(116,162)" d="m0 0 11 1 10 3v2l-9-1h-11l-3-2 3-1z" fill="#F2F4EF"/>
<path transform="translate(677,404)" d="m0 0 2 3 5 16 3 12v6l-2-4-2-3-1-7-2-5-2-11z" fill="#D1935D"/>
<path transform="translate(736,366)" d="m0 0 3 1-13 11-2 2-2-3v-3l11-7z" fill="#FDF1D6"/>
<path transform="translate(183,242)" d="m0 0 6 1 1 1v5l-2 2h-5l-2-2 1-6z" fill="#EFEBE4"/>
<path transform="translate(634,162)" d="m0 0 2 3 7 19 2 10v7l-2-4-4-18-2-6-2-1-1-3z" fill="#AD6E3C"/>
<path transform="translate(647,710)" d="m0 0 2 4 1 12-5 1-2-7z" fill="#9E6232"/>
<path transform="translate(715,255)" d="m0 0 1 3-1 7-6 4-9 1v-2l7-3 1-2 3-1z" fill="#D0925D"/>
<path transform="translate(203,573)" d="m0 0 1 2-1 3h-2l1 24-1-2h-2l-1-7v-8l3-9z" fill="#3A4E4F"/>
<path transform="translate(577,316)" d="m0 0 14 1 3 2h-7v2l-6 1-5-2-1-3z" fill="#F5EEDD"/>
<path transform="translate(674,531)" d="m0 0 3 2-3 12-5 11-2-4 6-16z" fill="#667778"/>
<path transform="translate(664,277)" d="m0 0 3 3 1 11-2-2v17h-1l-2-22v-6z" fill="#DB9F6B"/>
<path transform="translate(290,266)" d="m0 0v3l-9 6-3 1-1 3-5-1-2 1v-2l-4-1 18-5z" fill="#4B6264"/>
<path transform="translate(719,721)" d="m0 0 8 2 8 5-1 2-3-2-15-2 2-4z" fill="#F2F3ED"/>
<path transform="translate(574,473)" d="m0 0 4 2-8 15-1 3h-2l1-9z" fill="#F8EFD9"/>
<path transform="translate(509,487)" d="m0 0 3 3 4 8v3l4 1v1h-10l2-1-2-9-2-4z" fill="#9E5E32"/>
<path transform="translate(648,466)" d="m0 0h20l8 2 1 2-6 1-13-3-10-1z" fill="#FCF4E2"/>
<path transform="translate(176,414)" d="m0 0 2 3 6 12 2 3-1 3 2 7-3-3-4-8-4-13z" fill="#E6DECF"/>
<path transform="translate(223,591)" d="m0 0 3 3v7l-3 3-3-3v-9z" fill="#FAFAF9"/>
<path transform="translate(649,504)" d="m0 0 2 1v8l-1 3v16l-2-3-2 1 2-22z" fill="#D1935D"/>
<path transform="translate(112,485)" d="m0 0 2 3 6 10 1 3h2l-1 2h-5l-2-5-4-9z" fill="#384949"/>
<path transform="translate(109,486)" d="m0 0 3 3 4 9 1 5-5-1-3-10z" fill="#536E74"/>
<path transform="translate(672,339)" d="m0 0h2l12 16-2 4-5-5v-4l-5-6-2-1z" fill="#B0703B"/>
<path transform="translate(436,542)" d="m0 0h2l3 6 5 5 2 6-4-1-4-5-4-8z" fill="#C78854"/>
<path transform="translate(399,167)" d="m0 0h3l-1 6-2 10h-2l-1-6-2 1 3-9z" fill="#AC6C3A"/>
<path transform="translate(416,77)" d="m0 0h1v17l-1 7-2-2v-18z" fill="#FDF7EA"/>
<path transform="translate(615,183)" d="m0 0 5 2 6 5 2 5-5-3-7-4-4-1v-2z" fill="#A76836"/>
<path transform="translate(704,782)" d="m0 0 2 1-1 5h-2l1 5-4 1-2-2v-2l-2-2z" fill="#A76635"/>
<path transform="translate(658,562)" d="m0 0h3l-1 4-5 8-4 3 1-7z" fill="#F5E5C9"/>
<path transform="translate(756,493)" d="m0 0h2v2h4v7l-7-1-1-3 1-4z" fill="#FDF6E5"/>
<path transform="translate(655,407)" d="m0 0 6 5 4 4 2-4 2 11-4-1-1-3h-2l-7-10z" fill="#D1935D"/>
<path transform="translate(336,362)" d="m0 0 11 6 10 7 2 3-6-2-11-8-5-3z" fill="#5C777F"/>
<path transform="translate(502,181)" d="m0 0h7l9 4v2h-8v-2l-9-1z" fill="#9E6235"/>
<path transform="translate(280,433)" d="m0 0 2 2-3 9-3 5-5 1 2-5 3-3z" fill="#F1ECDF"/>
<path transform="translate(183,232)" d="m0 0h12l6 5v3l-4-1-5-4-11-1z" fill="#3D5253"/>
<path transform="translate(212,186)" d="m0 0h19v1l-18 1-7 1-9 3-8 1 4-3 11-3z" fill="#5D7880"/>
<path transform="translate(309,341)" d="m0 0h2l7 12 1 4h-4l-6-12z" fill="#F2EEE5"/>
<path transform="translate(164,317)" d="m0 0 6 1 4 5 3 7h6l-1 2h-6l-4-3-1-6-6-3z" fill="#F1EFE7"/>
<path transform="translate(639,128)" d="m0 0 2 1v3l-7 3h-3l1 4-8-1 3-3z" fill="#8D5832"/>
<path transform="translate(174,415)" d="m0 0 1 3h2l2 6v7h-3l-2-5z" fill="#49656A"/>
<path transform="translate(719,765)" d="m0 0 12 2 15 5 1 2-6-1-15-4-7-2z" fill="#3D5A5E"/>
<path transform="translate(675,250)" d="m0 0 3 1 5 9-1 2-4-1-5-9h2z" fill="#C78954"/>
<path transform="translate(92,215)" d="m0 0 1 4-4 3-9 2v-5l2-1 7-1z" fill="#FBF3E2"/>
<path transform="translate(279,337)" d="m0 0 2 1-3 3-16 6h-7l2-2 17-5z" fill="#F4EBD6"/>
<path transform="translate(288,262)" d="m0 0 2 4-5 5-8 3-4-1 8-4z" fill="#344545"/>
<path transform="translate(753,789)" d="m0 0h15l-1 3-4 1h-8l-3-3z" fill="#AA6937"/>
<path transform="translate(172,408)" d="m0 0h1v21l-3-2-3-11 3 3 1-2z" fill="#E8E2D5"/>
<path transform="translate(262,229)" d="m0 0h11l10 3v2l6 4v2l-4-2-10-6-3-1h-12z" fill="#374E4F"/>
<path transform="translate(267,170)" d="m0 0 2 1-15 15v5h-6l2-1 2-5 6-7 8-7z" fill="#5A757D"/>
<path transform="translate(303,148)" d="m0 0h7l1 2v7l-6-3z" fill="#FBFBF9"/>
<path transform="translate(727,717)" d="m0 0 4 1 5 3 3 2 6 2-1 2-7-1-5-4-4-2z" fill="#435B5E"/>
<path transform="translate(423,508)" d="m0 0h1v12l-2 2-2 4-1-1v-7l2-6h2z" fill="#FCF4E5"/>
<path transform="translate(511,488)" d="m0 0 4 1 6 11v2l-5-1-5-11z" fill="#B2713E"/>
<path transform="translate(721,464)" d="m0 0h2l4 13v7l-3 1-1-11-2-6z" fill="#A56434"/>
<path transform="translate(297,312)" d="m0 0h6l-2 2-7 2-6 3-3 7h-3l4-8 1-3z" fill="#F4F1E7"/>
<path transform="translate(490,179)" d="m0 0 2 1-1 4 2 1-10 6-2-1 3-5h2l2-4z" fill="#F9F0DB"/>
<path transform="translate(332,401)" d="m0 0 2 2 3 11 2-1 2 7-1 5-2-2-5-13z" fill="#5A747C"/>
<path transform="translate(555,110)" d="m0 0h1l-1 8-1 2h-5v-5l4-4z" fill="#FDF7EA"/>
<path transform="translate(453,527)" d="m0 0h1v26h-2l-3-3-2-1 1-2 3 1 1-4z" fill="#B97949"/>
<path transform="translate(121,490)" d="m0 0 2 3 2 9-4-1-5-7 1-2h3z" fill="#EEEDE5"/>
<path transform="translate(589,454)" d="m0 0 2 3-1 4-7 7-2-1 2-4 3-5h2z" fill="#F2DBBC"/>
<path transform="translate(251,326)" d="m0 0h1v6l-8 6-7 1 3-2 7-4 2-4-8-1v-1z" fill="#F7F0DE"/>
<path transform="translate(227,605)" d="m0 0 5 1 7 4-4 2-5-1-4-4z" fill="#F9F8F6"/>
<path transform="translate(530,466)" d="m0 0 2 1v2l4-3v17l-2-1-3-11z" fill="#FCF3DB"/>
<path transform="translate(34,409)" d="m0 0 1 2 3 1-1 3-2-1 1 4 2-1v8l-3 1-1-2z" fill="#FEF7E7"/>
<path transform="translate(671,317)" d="m0 0 3 3 3 11-4-1-2-2-1-8z" fill="#F9F0DD"/>
<path transform="translate(349,309)" d="m0 0 4 2 1 8-1 6-3-2z" fill="#FCF2D7"/>
<path transform="translate(785,771)" d="m0 0 4 1-4 8-5 3-2-2 5-6z" fill="#A46334"/>
<path transform="translate(394,290)" d="m0 0h2v10l-1 9-2 1v-16z" fill="#EAB17D"/>
<path transform="translate(138,143)" d="m0 0 5 1 1 5h-8l-2-2z" fill="#FCFAF7"/>
<path transform="translate(243,494)" d="m0 0 1 3 1 4 5 1-2 2-10-1-1-2h2l1-4z" fill="#354442"/>
<path transform="translate(717,496)" d="m0 0h5l3 4h-5v2h-10l2-2h5z" fill="#9A5E2F"/>
<path transform="translate(270,459)" d="m0 0 2 2-2 4h-2l-2 5-2 1v-3l-2-1 4-5z" fill="#4E6568"/>
<path transform="translate(158,327)" d="m0 0 5 4 3 5 3 3-6-1-5-4h2v-2l-2-1z" fill="#FAF3E4"/>
<path transform="translate(446,232)" d="m0 0h1v18l-2 3h-2z" fill="#AE6D3A"/>
<path transform="translate(703,696)" d="m0 0h10v1l-12 2-5 3-4 5-3 1-1-5h3l6-5z" fill="#E6DECF"/>
<path transform="translate(1,425)" d="m0 0 2 4v13l-2 5h-1v-10z" fill="#F5F0E6"/>
<path transform="translate(599,179)" d="m0 0h8l4 2-13 1-2 2-6 1 2-4z" fill="#A46534"/>
<path transform="translate(775,788)" d="m0 0 2 1-4 4-7 1h-10v-1l11-2z" fill="#B5743E"/>
<path transform="translate(333,394)" d="m0 0h1l4 17v5l-2-2-4-13-1-4h2z" fill="#E6DECF"/>
<path transform="translate(540,297)" d="m0 0h7l-1 6-3 4v-4l-3-1z" fill="#F1E8D6"/>
<path transform="translate(562,250)" d="m0 0 6 2 3 3v2l-9-1-1-5z" fill="#F1EFE8"/>
<path transform="translate(600,543)" d="m0 0h1l1 25h-6l4-2-1-7z" fill="#A16134"/>
<path transform="translate(163,242)" d="m0 0 2 1-10 10-1 2 4 1 1 4-1-2-3 1v-3l-3-1v-3l8-7z" fill="#2B332E"/>
<path transform="translate(715,162)" d="m0 0 4 1-2 4v11h-2v-2h-3l-3-5 4 2 3 2z" fill="#B6753F"/>
<path transform="translate(300,149)" d="m0 0 2 1-1 1 2 1v2l-12 2 1-5z" fill="#E6DED0"/>
<path transform="translate(485,740)" d="m0 0h2l3 7v4l-6-2v-7z" fill="#EFEBE2"/>
<path transform="translate(264,735)" d="m0 0h5v9l1 3-3-1-3-7-2 1z" fill="#FCF2DA"/>
<path transform="translate(697,693)" d="m0 0m-2 1h2v5h-2l-2 4-4 3 1-6z" fill="#F1F0E9"/>
<path transform="translate(658,357)" d="m0 0 8 6 6 5-1 2-8-6-2 2-3-6z" fill="#B6753F"/>
<path transform="translate(387,191)" d="m0 0 4 2v8l-4 2z" fill="#F9FEFD"/>
<path transform="translate(122,167)" d="m0 0 9 1v2l7 1 4 2v2l-10-3-10-4z" fill="#486165"/>
<path transform="translate(652,780)" d="m0 0 5 1-4 1v2l2 1 2 4 2 2-4-1-6-5v-3z" fill="#9C5B31"/>
<path transform="translate(197,461)" d="m0 0h3v2h5l1 2-9-1-21-1v-1z" fill="#384A4A"/>
<path transform="translate(654,152)" d="m0 0 8 1-3 3 1 12-2-4z" fill="#D1935D"/>
<path transform="translate(430)" d="m0 0h8l5 1-2 1v2l-15-1z" fill="#F2EFE7"/>
<path transform="translate(684,637)" d="m0 0h2v19h-1l-1-11h-3l2-7z" fill="#3F4B49"/>
<path transform="translate(666,551)" d="m0 0 2 1-6 11-3-1 2-5z" fill="#E3D7C5"/>
<path transform="translate(217,461)" d="m0 0 4 2 4 3h-5l-1 2h-3l-3-6 4 1z" fill="#FCF3DA"/>
<path transform="translate(33,434)" d="m0 0 2 4 1 3v23h-1l-2-23z" fill="#D4A377"/>
<path transform="translate(251,265)" d="m0 0 2 1v2l3 1-2 1-2 4-6-3 1-3 4-1z" fill="#3D5659"/>
<path transform="translate(195,260)" d="m0 0 2 1-3 7-3 3-3-1 1-4 5-5z" fill="#F5F2EB"/>
<path transform="translate(617,179)" d="m0 0 4 2 3 4v2l-5-2-8-4 3-1 3 1z" fill="#E8DAC6"/>
<path transform="translate(607,173)" d="m0 0 5 1 6 4-1 3-10-1 4-2 1-1-5-3z" fill="#F4EDDD"/>
<path transform="translate(653,700)" d="m0 0 2 4-2 7-5-1 2-6z" fill="#A36533"/>
<path transform="translate(250,675)" d="m0 0 5 1 2 4-3-2h-5v20h-1v-21z" fill="#B0693F"/>
<path transform="translate(621,563)" d="m0 0m-5 1 4 1 3 1-2 4-6-1z" fill="#CE905B"/>
<path transform="translate(229,531)" d="m0 0h21v1l-20 1-10 2 2-3z" fill="#5B7074"/>
<path transform="translate(446,225)" d="m0 0h1l1 5v12h-1l-1-5h-1v-6l-4-1 2-2h3z" fill="#9C5E30"/>
<path transform="translate(793,770)" d="m0 0 1 3-6 9-1-3v-4l1-3z" fill="#955934"/>
<path transform="translate(668,711)" d="m0 0h5l1 2-12 5 2-5z" fill="#E6DECF"/>
<path transform="translate(348,390)" d="m0 0 3 1 8 16-1 2-6-9v-3h-2z" fill="#3B5456"/>
<path transform="translate(301,313)" d="m0 0 5 1 4 3-2 3-4-1-3-5z" fill="#ECE5DB"/>
<path transform="translate(400,246)" d="m0 0h3l5 11-1 2-4-3z" fill="#A76836"/>
<path transform="translate(128,166)" d="m0 0 16 2-2 4-16-4z" fill="#EBE6DC"/>
<path transform="translate(186,595)" d="m0 0h1l3 16-1 3-1-5h-2l-2-8z" fill="#A56C3F"/>
<path transform="translate(223,534)" d="m0 0h8l-1 2-8 3-4-1 2-3z" fill="#F2EEE6"/>
<path transform="translate(506,493)" d="m0 0 4 1 2 3v5h-3l-3-6z" fill="#CD8F5A"/>
<path transform="translate(712,480)" d="m0 0 4 4 7 11-1 2-3-3-7-11z" fill="#AF6E3B"/>
<path transform="translate(699,481)" d="m0 0 9 6 6 5-1 3-9-8-4-2h-2z" fill="#B06F3B"/>
<path transform="translate(453,446)" d="m0 0h17l-3 2-11 1z" fill="#F3F6F2"/>
<path transform="translate(155,353)" d="m0 0 3 1-2 5-3 3-1-2-3 2 2-4z" fill="#F0EDE5"/>
<path transform="translate(106,175)" d="m0 0h1l-1 9-1 5h-2l-1-9 3-3z" fill="#F6EEE0"/>
<path transform="translate(559,103)" d="m0 0 1 4-3 6-2-2-3 1 2-5z" fill="#FCF2DB"/>
<path transform="translate(650,738)" d="m0 0 8 6v5l-3-1-5-7z" fill="#A06231"/>
<path transform="translate(224,625)" d="m0 0 15 2 2 2h-13v-2l-4-1z" fill="#476367"/>
<path transform="translate(211,617)" d="m0 0 7 2 5 5-1 2-7-4v-2l-4-2z" fill="#446165"/>
<path transform="translate(490,525)" d="m0 0 4 1v11l-2-1-2-6z" fill="#C68854"/>
<path transform="translate(349,312)" d="m0 0h1l1 11 2 4-5-1zm4 7h1v6h-1z" fill="#E8B080"/>
<path transform="translate(453,170)" d="m0 0 3 1-4 10-3 3 1-7z" fill="#CA8C58"/>
<path transform="translate(482,530)" d="m0 0h1v12l-1 3-6 2-1-2h3l3-6z" fill="#D1935D"/>
<path transform="translate(557,275)" d="m0 0 6 2 5 5h-6l-5-5z" fill="#687B7D"/>
<path transform="translate(443,243)" d="m0 0h1v7l-1 3-6 2 1-4h2l2-5z" fill="#9F6230"/>
<path transform="translate(434,170)" d="m0 0h2v2l3-1-2 4-6 3 1-6z" fill="#B6753F"/>
<path transform="translate(49,745)" d="m0 0 3 1v11h-2l-1-2z" fill="#F3EFE5"/>
<path transform="translate(696,718)" d="m0 0 7 2-2 1v2l-5 1-2-5z" fill="#455D60"/>
<path transform="translate(264,618)" d="m0 0h2l-1 4-5 2-7 1 2-2z" fill="#5D7880"/>
<path transform="translate(502,487)" d="m0 0 4 1 5 5-2 1-3-1-1 2-3-5z" fill="#B47440"/>
<path transform="translate(719,244)" d="m0 0 1 4-3 11 2 1-5 4 3-14z" fill="#EADDC8"/>
<path transform="translate(565,256)" d="m0 0h7l-1 6-4 1-2-4z" fill="#5C777F"/>
<path transform="translate(717,247)" d="m0 0 1 3-1 3-5 3-5 4v-3l3-1 1-3 5-5z" fill="#AA6936"/>
<path transform="translate(640,123)" d="m0 0h11l-4 3-5 1v-2h-6z" fill="#EFE4D2"/>
<path transform="translate(0,382)" d="m0 0 2 1 1 3v8l-1 5h-1z" fill="#F5F1E9"/>
<path transform="translate(348,337)" d="m0 0 4 1v6l-5-1z" fill="#F7E0C4"/>
<path transform="translate(534,257)" d="m0 0 3 1-5 4-1 3h-2l-1 3-1-3v-7l2 4z" fill="#5C777F"/>
<path transform="translate(669,737)" d="m0 0 4 1h9l4-1-2 3-9 1-6-3z" fill="#364A4B"/>
<path transform="translate(666,554)" d="m0 0h2l-1 6-3 5h-2l1-5z" fill="#867A67"/>
<path transform="translate(648,519)" d="m0 0h1l1 5v8l-2-3-2 1 1-10z" fill="#D0915B"/>
<path transform="translate(317,514)" d="m0 0 2 2-1 8-4 2 2-11z" fill="#35413F"/>
<path transform="translate(467,447)" d="m0 0h5l-1 3h-14v-1z" fill="#FCFDFD"/>
<path transform="translate(339,368)" d="m0 0 3 1 3 7v6l-2-3-4-9z" fill="#3C5152"/>
<path transform="translate(348,289)" d="m0 0 4 1 1 5-4 2-1-7z" fill="#E9AB75"/>
<path transform="translate(408,257)" d="m0 0 4 1v2l4 2 1 2-5-1-4-3z" fill="#A06331"/>
<path transform="translate(667,231)" d="m0 0 3 3 2 9-4-1-1-4z" fill="#D69762"/>
<path transform="translate(597,185)" d="m0 0h15v1l-11 1-3 1h-7l3-2z" fill="#B6753F"/>
<path transform="translate(639,132)" d="m0 0 2 2 11 1v1h-18v-2z" fill="#FCEFD4"/>
<path transform="translate(270,582)" d="m0 0 3 4 1 2v8h-1l-1-6-2 2z" fill="#F1EFE8"/>
<path transform="translate(579,520)" d="m0 0h1v5h2l-2 11-2-1z" fill="#E6DECF"/>
<path transform="translate(447,374)" d="m0 0 1 3 3 1-4 3h-4l2-5z" fill="#EEEAE0"/>
<path transform="translate(292,157)" d="m0 0h3l-1 3-6 5-3-2z" fill="#3F3B30"/>
<path transform="translate(648,685)" d="m0 0 2 1v10l-2 1-1-9z" fill="#B6753F"/>
<path transform="translate(230,532)" d="m0 0h11l-1 3h-9l-5-1z" fill="#E6DECF"/>
<path transform="translate(743,360)" d="m0 0h2v3l-6 4h-5l4-4 5-1z" fill="#E9AB75"/>
<path transform="translate(510,321)" d="m0 0 10 1 4 3h-8l-6-3z" fill="#EEE8DB"/>
<path transform="translate(221,190)" d="m0 0 2 2v5l-2-2-1 7h-1l-1-10z" fill="#5D7880"/>
<path transform="translate(488,187)" d="m0 0 1 2 5-1v2l-6 2h-5l1-3z" fill="#BA7A44"/>
<path transform="translate(676,162)" d="m0 0 7 2 1-2 2 5h-6v-2l-4-2z" fill="#B6753F"/>
<path transform="translate(290,152)" d="m0 0 4 1-1 2h-2v2h-7l1-3z" fill="#F0F0E9"/>
<path transform="translate(657,782)" d="m0 0 8 8-6-1-3-3z" fill="#9E6130"/>
<path transform="translate(327,728)" d="m0 0 1 4-4 8-2 1 3-10z" fill="#F5EEDF"/>
<path transform="translate(674,531)" d="m0 0 3 2-2 9-2 1v-7z" fill="#637272"/>
<path transform="translate(418,475)" d="m0 0 2 4-1 4-2 5h-2l2-9z" fill="#ECE3D2"/>
<path transform="translate(574,473)" d="m0 0 4 2-4 7h-2v-6z" fill="#F8F1E1"/>
<path transform="translate(277,442)" d="m0 0 1 4-4 4h-3l2-4z" fill="#EFECE3"/>
<path transform="translate(411,441)" d="m0 0 6 2 1 4-4 2z" fill="#ECE7DC"/>
<path transform="translate(175,422)" d="m0 0 4 4v5h-3l-1-2z" fill="#364A4A"/>
<path transform="translate(450,417)" d="m0 0h1l2 10-1 2h-3v-7z" fill="#E0A26D"/>
<path transform="translate(670,234)" d="m0 0h2l3 10 1 4-3-3-3-6z" fill="#AF6F3B"/>
<path transform="translate(129,212)" d="m0 0 5 1-1 6-4 4 1-8 3 1v-2l-4-1z" fill="#986943"/>
</svg>
